<svg width="532" height="430" viewBox="0 0 532 430" fill="none" xmlns="http://www.w3.org/2000/svg">
<rect width="532" height="430" fill="#F2F3EF"/>
<path d="M241.326 231.772C243.551 231.588 244.977 231.048 245.628 230.165C246.267 229.282 246.587 227.48 246.587 224.758V208.78C246.587 206.217 245.972 204.267 244.755 202.931C243.539 201.594 241.768 200.932 239.433 200.932C237.724 200.932 236.213 201.251 234.909 201.876C233.606 202.502 232.267 203.519 230.878 204.942C230.988 206.168 231.037 207.137 231.037 207.823V224.77C231.037 227.468 231.369 229.258 232.045 230.153C232.709 231.048 234.159 231.588 236.385 231.772V234.212H218.561V231.772C220.786 231.588 222.212 231.048 222.863 230.165C223.502 229.282 223.822 227.48 223.822 224.758V208.535C223.822 206.058 223.257 204.157 222.113 202.869C220.97 201.57 219.323 200.932 217.16 200.932C215.414 200.932 213.866 201.288 212.501 202.011C211.137 202.735 209.699 203.948 208.199 205.653V225.604C208.199 227.958 208.568 229.528 209.305 230.312C210.043 231.097 211.616 231.588 214.025 231.772V234.212H195.121V231.772C197.554 231.588 199.14 231.097 199.878 230.312C200.615 229.528 200.984 227.958 200.984 225.604V205.494C200.984 203.139 200.603 201.606 199.865 200.871C199.115 200.135 197.542 199.767 195.133 199.767V197.646L205.888 194.838H208.211V202.207H208.297C209.846 199.534 211.567 197.56 213.46 196.285C215.353 194.997 217.602 194.359 220.221 194.359C222.839 194.359 225.027 195.022 226.76 196.346C228.505 197.67 229.722 199.595 230.41 202.134C231.959 199.485 233.68 197.535 235.573 196.26C237.466 194.997 239.716 194.359 242.334 194.359C249.992 194.359 253.814 199.08 253.814 208.535V224.758C253.814 227.48 254.159 229.282 254.859 230.165C255.56 231.048 257.084 231.575 259.432 231.772V234.212H241.326V231.772Z" fill="#101700"/>
<path d="M278.312 235.377C272.903 235.377 268.614 233.586 265.418 230.006C262.234 226.425 260.636 221.643 260.636 215.671C260.636 209.234 262.21 204.071 265.356 200.184C268.503 196.297 272.817 194.359 278.3 194.359C283.143 194.359 286.867 195.77 289.461 198.59C292.054 201.41 293.333 205.408 293.271 210.582H267.692C267.643 211.012 267.606 211.723 267.606 212.704C267.606 217.13 268.712 220.699 270.937 223.372C273.162 226.057 276.124 227.394 279.848 227.394C282.258 227.394 284.396 226.818 286.277 225.653C288.145 224.488 289.51 222.906 290.37 220.907L293.025 221.668C292.14 226.315 290.518 229.761 288.145 232.005C285.773 234.249 282.491 235.365 278.287 235.365L278.312 235.377ZM268.11 207.063H285.22C285.22 204.181 284.581 201.901 283.315 200.233C282.049 198.565 280.082 197.732 277.427 197.732C275.104 197.732 273.112 198.529 271.49 200.135C269.855 201.741 268.737 204.047 268.122 207.063H268.11Z" fill="#101700"/>
<path d="M297.155 231.772C299.589 231.588 301.175 231.097 301.912 230.312C302.65 229.528 303.018 227.958 303.018 225.604V205.494C303.018 203.139 302.637 201.606 301.9 200.871C301.15 200.135 299.577 199.767 297.168 199.767V197.646L307.923 194.838H310.246V202.207H310.332C311.697 199.718 313.43 197.793 315.532 196.419C317.633 195.046 320.006 194.359 322.661 194.359C326.348 194.359 329.212 195.5 331.228 197.781C333.244 200.061 334.264 203.409 334.264 207.811V225.591C334.264 227.946 334.609 229.515 335.285 230.3C335.973 231.085 337.46 231.575 339.759 231.759V234.2H321.85V231.759C324.05 231.575 325.451 231.097 326.09 230.312C326.717 229.54 327.037 227.958 327.037 225.591V209.172C327.037 203.666 324.615 200.92 319.772 200.92C316.208 200.92 313.036 202.502 310.258 205.641V225.591C310.258 227.946 310.627 229.515 311.365 230.3C312.102 231.085 313.676 231.575 316.085 231.759V234.2H297.18V231.759L297.155 231.772Z" fill="#101700"/>
<path d="M355.259 235.376C351.781 235.376 348.991 234.224 346.913 231.931C344.824 229.638 343.779 226.302 343.779 221.912V202.808C343.779 201.177 343.459 200 342.832 199.288C342.205 198.565 341.038 198.025 339.317 197.645V195.328H351.006V219.717C351.006 223.114 351.572 225.468 352.715 226.805C353.858 228.142 355.591 228.804 357.914 228.804C361.233 228.804 364.331 227.185 367.195 223.96V202.808C367.195 200.883 366.851 199.619 366.175 199.006C365.486 198.393 363.95 197.964 361.541 197.719V195.315H374.435V224.512C374.435 227.026 374.84 228.657 375.664 229.405C376.475 230.153 378.159 231.771 380.704 231.771V234.211L368.375 234.69L367.207 233.807V227.479C365.707 230.226 364.023 232.237 362.143 233.488C360.274 234.739 357.976 235.376 355.272 235.376H355.259Z" fill="#101700"/>
<path d="M402.656 231.771C405.066 231.685 406.27 230.912 406.27 229.453C406.27 228.46 405.717 227.32 404.623 226.008L398.797 218.883L392.86 225.529C391.274 227.271 390.488 228.656 390.488 229.698C390.488 231.011 391.852 231.697 394.581 231.783V234.223H380.212V231.783C381.306 231.673 382.363 231.17 383.383 230.275C384.403 229.38 386.161 227.54 388.681 224.769L396.511 216.075L387.353 204.855C385.128 202.084 383.567 200.232 382.67 199.325C381.773 198.417 380.924 197.915 380.125 197.804V195.315H397.469V197.804C395.06 197.89 393.855 198.65 393.855 200.085C393.855 201.078 394.409 202.219 395.503 203.531L401.329 210.655L407.352 204.009C408.925 202.268 409.724 200.882 409.724 199.84C409.724 198.552 408.36 197.878 405.631 197.792V195.303H420V197.792C418.906 197.902 417.837 198.405 416.804 199.288C415.772 200.183 414.014 202.01 411.519 204.757L403.652 213.525L412.76 224.659C414.961 227.381 416.509 229.22 417.444 230.164C418.365 231.109 419.214 231.636 419.988 231.746V234.186H402.644V231.746L402.656 231.771Z" fill="#101700"/>
<path d="M153.279 232.36L135.124 229.184L144.982 191.208L119.845 184.746L121.074 180L150.98 187.676L141.221 225.272L154.127 227.529L153.279 232.36Z" fill="#101700"/>
<path d="M121.874 220.54C120.362 220.54 118.592 220.147 116.564 219.056C109.656 215.353 112.544 203.949 112.901 202.661L117.645 203.949L115.273 203.299L117.645 203.936C116.859 206.818 116.146 213.256 118.887 214.727C121.603 216.186 122.955 215.488 123.398 215.255C126.606 213.599 128.093 206.867 128.364 204.635L133.244 205.212C133.109 206.352 131.756 216.444 125.672 219.608C124.713 220.098 123.435 220.527 121.874 220.527V220.54Z" fill="#101700"/>
<path d="M163.113 223.396C161.601 223.396 159.831 223.004 157.803 221.912C150.895 218.209 153.796 206.805 154.14 205.518L158.885 206.805L156.512 206.155L158.885 206.793C158.098 209.675 157.385 216.112 160.126 217.584C162.843 219.043 164.195 218.344 164.637 218.111C167.845 216.456 169.333 209.724 169.603 207.492L174.483 208.068C174.348 209.209 172.996 219.3 166.911 222.464C165.952 222.955 164.674 223.384 163.113 223.384V223.396Z" fill="#101700"/>
<path d="M142.033 249.735C127.356 249.735 118.813 241.164 118.69 241.029L122.218 237.62C122.857 238.27 138.271 253.488 164.256 237.939L166.788 242.145C157.324 247.81 148.99 249.735 142.033 249.735Z" fill="#101700"/>
</svg>
