<svg width="532" height="430" viewBox="0 0 532 430" fill="none" xmlns="http://www.w3.org/2000/svg">
<rect width="532" height="430" fill="#F2F3EF"/>
<path d="M205.774 234.86C202.689 233.03 200.258 230.444 198.482 227.107C196.702 223.768 195.816 219.927 195.816 215.561C195.816 211.195 196.652 207.524 198.341 204.1C200.021 200.675 202.396 197.998 205.463 196.054C208.533 194.104 212.054 193.143 216.03 193.143C219.17 193.143 222.032 193.758 224.612 194.984C227.198 196.209 229.324 197.945 230.992 200.194C232.658 202.44 233.728 205.041 234.203 207.99L228.286 208.776C227.62 205.695 226.189 203.226 223.999 201.39C221.803 199.561 219.194 198.64 216.168 198.64C213.417 198.64 211.007 199.391 208.937 200.895C206.867 202.396 205.266 204.431 204.146 206.996C203.026 209.562 202.46 212.362 202.46 215.394C202.46 218.426 203.015 221.214 204.126 223.75C205.24 226.286 206.826 228.307 208.896 229.811C210.966 231.312 213.376 232.065 216.127 232.065C218.076 232.065 219.883 231.67 221.563 230.881C223.243 230.095 224.668 228.975 225.838 227.53C227.007 226.084 227.823 224.404 228.298 222.504L234.214 223.29C233.739 225.911 232.704 228.301 231.109 230.47C229.514 232.64 227.439 234.367 224.879 235.657C222.319 236.953 219.422 237.607 216.168 237.607C212.333 237.607 208.876 236.692 205.791 234.857H205.777L205.774 234.86Z" fill="#101700"/>
<path d="M265.027 230.018C267.123 228.657 268.777 226.708 269.988 224.186C271.199 221.662 271.803 218.75 271.803 215.44C271.803 212.129 271.201 209.139 269.988 206.629C268.777 204.119 267.132 202.178 265.047 200.797C262.962 199.416 260.611 198.727 258.001 198.727C255.392 198.727 252.991 199.413 250.9 200.797C248.804 202.178 247.15 204.122 245.939 206.629C244.728 209.139 244.124 212.08 244.124 215.44C244.124 218.8 244.734 221.662 245.954 224.171C247.173 226.681 248.839 228.622 250.935 230.003C253.032 231.384 255.386 232.073 258.001 232.073C260.617 232.073 262.921 231.387 265.027 230.024V230.015V230.018ZM247.519 234.838C244.394 232.988 241.934 230.373 240.142 226.998C238.348 223.617 237.457 219.767 237.457 215.44C237.457 211.112 238.342 207.218 240.122 203.858C241.902 200.498 244.359 197.877 247.499 195.997C250.639 194.118 254.14 193.183 257.996 193.183C261.851 193.183 265.387 194.118 268.498 195.974C271.609 197.839 274.048 200.445 275.814 203.811C277.579 207.177 278.458 211.048 278.458 215.434C278.458 219.82 277.567 223.62 275.793 226.992C274.013 230.373 271.568 232.988 268.457 234.832C265.346 236.682 261.86 237.603 257.996 237.603C254.131 237.603 250.639 236.682 247.513 234.832H247.519V234.838Z" fill="#101700"/>
<path d="M324.057 236.8C321.781 236.8 319.966 236.46 318.621 235.78C317.275 235.099 316.31 234.135 315.73 232.889C315.149 231.643 314.865 230.124 314.894 228.347V199.704H307.772V193.998H314.894V183H321.479V194.001H330.985V199.707H321.479V228.376C321.479 229.318 321.664 230.001 322.039 230.417C322.415 230.836 323.104 231.042 324.103 231.042H330.894V236.788H324.062V236.803L324.057 236.8Z" fill="#101700"/>
<path d="M367.184 211.874C367.099 209.195 366.574 206.828 365.604 204.767C364.633 202.706 363.223 201.117 361.373 199.997C359.523 198.877 357.341 198.317 354.811 198.317C352.28 198.317 350.19 198.812 348.29 199.812C346.39 200.803 344.859 202.313 343.704 204.327C342.549 206.348 341.825 208.857 341.52 211.869H367.19L367.184 211.874ZM344.232 234.794C341.212 232.918 338.931 230.288 337.377 226.898C335.826 223.512 335.046 219.656 335.046 215.317C335.046 210.977 335.861 206.846 337.506 203.509C339.142 200.164 341.461 197.598 344.467 195.819C347.463 194.033 350.967 193.147 354.969 193.147C358.971 193.147 362.211 194.042 365.032 195.819C367.853 197.604 369.993 200.07 371.447 203.219C372.907 206.365 373.632 209.93 373.632 213.906C373.632 214.346 373.617 214.836 373.588 215.352C373.558 215.877 373.517 216.443 373.462 217.052H341.411C341.581 220.149 342.221 222.823 343.332 225.074C344.446 227.329 346.018 229.036 348.058 230.211C350.099 231.387 352.565 231.977 355.459 231.977C358.353 231.977 361.015 231.375 363.041 230.176C365.067 228.98 366.557 227.256 367.501 225.016L373.333 226.215C372.608 228.616 371.377 230.681 369.647 232.387C367.911 234.102 365.806 235.398 363.331 236.284C360.857 237.169 358.15 237.609 355.204 237.609C350.894 237.609 347.237 236.668 344.226 234.788H344.232V234.794Z" fill="#101700"/>
<path d="M290.511 200.328C290.135 200.748 289.951 201.428 289.951 202.369V236.794H283.365V202.419C283.336 200.639 283.615 199.123 284.201 197.877C284.782 196.631 285.746 195.666 287.092 194.986C288.438 194.306 290.253 193.966 292.528 193.966H302.869V199.713H292.572C291.572 199.713 290.886 199.918 290.511 200.337V200.331V200.328Z" fill="#101700"/>
<path d="M380.464 193.162L376.078 197.522L387.035 208.423C390.905 212.273 390.905 218.536 387.035 222.386L376.107 233.258L380.494 237.618L391.422 226.746C394.468 223.72 396.142 219.685 396.142 215.405C396.142 211.124 394.462 207.092 391.422 204.063L380.464 193.162Z" fill="#101700"/>
<path d="M408.603 208.423L419.56 197.522L415.173 193.162L404.214 204.063C397.918 210.315 397.918 220.492 404.214 226.752L415.144 237.624L419.531 233.264L408.603 222.392C404.732 218.542 404.732 212.279 408.603 208.429V208.423Z" fill="#101700"/>
<path d="M159.239 226.007C158.594 225.851 157.978 225.857 157.418 226.007C156.427 226.262 155.377 225.887 154.653 225.162L154.433 224.943C153.794 224.303 153.533 223.418 153.547 222.512C153.547 222.292 153.527 222.066 153.457 221.832C153.237 221.052 152.597 220.415 151.826 220.196C151.592 220.131 151.366 220.105 151.146 220.105C150.24 220.119 149.352 219.85 148.707 219.21L148.516 219.02C147.792 218.296 147.417 217.255 147.672 216.27C147.707 216.12 147.736 215.979 147.751 215.839C147.771 215.689 147.78 215.534 147.78 215.384C147.78 215.235 147.774 215.073 147.751 214.93C147.736 214.789 147.707 214.639 147.672 214.499C147.422 213.513 147.801 212.473 148.516 211.748L148.707 211.558C149.346 210.919 150.231 210.652 151.146 210.664C151.366 210.664 151.592 210.643 151.826 210.573C152.606 210.353 153.243 209.716 153.457 208.937C153.521 208.702 153.547 208.476 153.547 208.256C153.533 207.35 153.797 206.462 154.433 205.826L154.653 205.606C155.377 204.882 156.424 204.506 157.418 204.761C157.978 204.911 158.602 204.925 159.239 204.761C160.599 204.421 161.69 203.272 161.945 201.891C162.42 199.305 160.209 197.085 157.623 197.56C156.242 197.815 155.087 198.9 154.747 200.266C154.591 200.912 154.597 201.527 154.747 202.096C155.002 203.087 154.626 204.137 153.902 204.861L153.732 205.031C153.081 205.682 152.181 205.952 151.258 205.917C151.017 205.911 150.768 205.931 150.513 205.996C149.718 206.21 149.073 206.852 148.862 207.646C148.798 207.896 148.771 208.142 148.783 208.377C148.818 209.297 148.548 210.206 147.897 210.857L147.783 210.971C147.053 211.701 145.989 212.062 144.983 211.807C144.962 211.807 144.933 211.792 144.913 211.786C144.883 211.781 144.848 211.786 144.822 211.781C144.581 211.731 144.332 211.696 144.071 211.696H144.021C143.751 211.696 143.482 211.737 143.227 211.795C143.212 211.795 143.191 211.795 143.177 211.801C142.177 212.056 141.121 211.701 140.391 210.971L140.242 210.822C139.567 210.147 139.186 209.241 139.192 208.286C139.192 207.415 138.732 206.57 137.952 206.175C137.521 205.955 137.096 205.87 136.697 205.89C135.832 205.934 134.996 205.6 134.381 204.99L134.231 204.84C133.486 204.11 133.117 203.04 133.366 202.034C133.507 201.48 133.516 200.879 133.352 200.249C133.011 198.888 131.862 197.804 130.487 197.548C127.901 197.068 125.681 199.284 126.15 201.864C126.406 203.254 127.49 204.401 128.866 204.75C129.505 204.905 130.12 204.899 130.68 204.75C131.686 204.489 132.75 204.864 133.486 205.594L133.536 205.644C134.211 206.309 134.472 207.245 134.442 208.189C134.436 208.423 134.457 208.658 134.521 208.904C134.727 209.705 135.378 210.359 136.181 210.57C136.442 210.64 136.712 210.661 136.961 210.649C137.882 210.599 138.796 210.869 139.456 211.52L139.661 211.719C140.391 212.449 140.746 213.505 140.506 214.51C140.441 214.771 140.406 215.05 140.406 215.325V215.41C140.406 215.695 140.441 215.971 140.506 216.226C140.755 217.231 140.4 218.287 139.661 219.017L139.456 219.216C138.805 219.867 137.882 220.137 136.961 220.087C136.706 220.072 136.451 220.102 136.181 220.163C135.381 220.377 134.735 221.028 134.521 221.829C134.457 222.069 134.436 222.31 134.442 222.544C134.477 223.488 134.208 224.424 133.536 225.089L133.486 225.139C132.75 225.869 131.686 226.244 130.68 225.983C130.12 225.834 129.505 225.828 128.866 225.983C127.496 226.324 126.406 227.479 126.15 228.869C125.681 231.449 127.901 233.665 130.487 233.185C131.868 232.929 133.017 231.845 133.352 230.484C133.507 229.86 133.501 229.25 133.366 228.699C133.111 227.693 133.486 226.623 134.231 225.893L134.381 225.743C134.996 225.133 135.835 224.802 136.697 224.843C137.093 224.863 137.512 224.778 137.952 224.558C138.732 224.168 139.198 223.324 139.192 222.447C139.192 221.497 139.567 220.583 140.242 219.911L140.391 219.762C141.121 219.037 142.177 218.677 143.177 218.932C143.191 218.932 143.212 218.932 143.227 218.941C143.482 219.005 143.751 219.04 144.021 219.04H144.071C144.326 219.04 144.575 219.005 144.822 218.955C144.851 218.955 144.886 218.955 144.913 218.949C144.933 218.949 144.962 218.935 144.983 218.929C145.989 218.674 147.053 219.029 147.783 219.765L147.897 219.879C148.548 220.53 148.818 221.445 148.783 222.359C148.777 222.594 148.798 222.84 148.862 223.09C149.073 223.884 149.721 224.535 150.513 224.74C150.768 224.805 151.017 224.831 151.258 224.819C152.178 224.784 153.078 225.054 153.732 225.705L153.902 225.875C154.624 226.599 155.002 227.646 154.747 228.64C154.597 229.206 154.582 229.824 154.747 230.469C155.087 231.83 156.236 232.921 157.623 233.176C160.209 233.651 162.429 231.431 161.945 228.845C161.69 227.464 160.599 226.315 159.239 225.975V226.016V226.007Z" fill="#101700"/>
<path d="M145.062 193.277H143.098C141.603 193.277 140.392 194.488 140.392 195.984V197.948C140.392 199.443 141.603 200.654 143.098 200.654H145.062C146.558 200.654 147.769 199.443 147.769 197.948V195.984C147.769 194.488 146.558 193.277 145.062 193.277Z" fill="#101700"/>
<path d="M135.714 188.371H133.397C132.72 188.371 132.172 188.919 132.172 189.597V191.913C132.172 192.59 132.72 193.139 133.397 193.139H135.714C136.391 193.139 136.939 192.59 136.939 191.913V189.597C136.939 188.919 136.391 188.371 135.714 188.371Z" fill="#101700"/>
<path d="M120.662 203.434H118.345C117.668 203.434 117.12 203.982 117.12 204.659V206.976C117.12 207.653 117.668 208.201 118.345 208.201H120.662C121.339 208.201 121.887 207.653 121.887 206.976V204.659C121.887 203.982 121.339 203.434 120.662 203.434Z" fill="#101700"/>
<path d="M169.797 203.434H167.48C166.803 203.434 166.255 203.982 166.255 204.659V206.976C166.255 207.653 166.803 208.201 167.48 208.201H169.797C170.474 208.201 171.022 207.653 171.022 206.976V204.659C171.022 203.982 170.474 203.434 169.797 203.434Z" fill="#101700"/>
<path d="M120.662 222.456H118.345C117.668 222.456 117.12 223.004 117.12 223.682V226.001C117.12 226.678 117.668 227.226 118.345 227.226H120.662C121.339 227.226 121.887 226.678 121.887 226.001V223.682C121.887 223.004 121.339 222.456 120.662 222.456Z" fill="#101700"/>
<path d="M135.714 237.516H133.397C132.72 237.516 132.172 238.064 132.172 238.741V241.058C132.172 241.735 132.72 242.283 133.397 242.283H135.714C136.391 242.283 136.939 241.735 136.939 241.058V238.741C136.939 238.064 136.391 237.516 135.714 237.516Z" fill="#101700"/>
<path d="M145.525 243.625H142.57C142.315 243.625 142.109 243.83 142.109 244.085V247.041C142.109 247.296 142.315 247.501 142.57 247.501H145.525C145.78 247.501 145.986 247.296 145.986 247.041V244.085C145.986 243.83 145.78 243.625 145.525 243.625Z" fill="#101700"/>
<path d="M124.262 234.789H121.306C121.051 234.789 120.846 234.994 120.846 235.249V238.205C120.846 238.46 121.051 238.665 121.306 238.665H124.262C124.517 238.665 124.722 238.46 124.722 238.205V235.249C124.722 234.994 124.517 234.789 124.262 234.789Z" fill="#101700"/>
<path d="M115.416 213.446H112.46C112.205 213.446 112 213.652 112 213.907V216.862C112 217.117 112.205 217.322 112.46 217.322H115.416C115.671 217.322 115.876 217.117 115.876 216.862V213.907C115.876 213.652 115.671 213.446 115.416 213.446Z" fill="#101700"/>
<path d="M124.262 192.086H121.306C121.051 192.086 120.846 192.291 120.846 192.546V195.502C120.846 195.757 121.051 195.962 121.306 195.962H124.262C124.517 195.962 124.722 195.757 124.722 195.502V192.546C124.722 192.291 124.517 192.086 124.262 192.086Z" fill="#101700"/>
<path d="M166.956 192.086H164C163.745 192.086 163.54 192.291 163.54 192.546V195.502C163.54 195.757 163.745 195.962 164 195.962H166.956C167.211 195.962 167.416 195.757 167.416 195.502V192.546C167.416 192.291 167.211 192.086 166.956 192.086Z" fill="#101700"/>
<path d="M145.525 183.24H142.57C142.315 183.24 142.109 183.445 142.109 183.701V186.656C142.109 186.911 142.315 187.116 142.57 187.116H145.525C145.78 187.116 145.986 186.911 145.986 186.656V183.701C145.986 183.445 145.78 183.24 145.525 183.24Z" fill="#101700"/>
<path d="M166.956 234.789H164C163.745 234.789 163.54 234.994 163.54 235.249V238.205C163.54 238.46 163.745 238.665 164 238.665H166.956C167.211 238.665 167.416 238.46 167.416 238.205V235.249C167.416 234.994 167.211 234.789 166.956 234.789Z" fill="#101700"/>
<path d="M175.802 213.446H172.846C172.591 213.446 172.386 213.652 172.386 213.907V216.862C172.386 217.117 172.591 217.322 172.846 217.322H175.802C176.057 217.322 176.262 217.117 176.262 216.862V213.907C176.262 213.652 176.057 213.446 175.802 213.446Z" fill="#101700"/>
<path d="M154.738 237.516H152.422C151.745 237.516 151.196 238.064 151.196 238.741V241.058C151.196 241.735 151.745 242.283 152.422 242.283H154.738C155.416 242.283 155.964 241.735 155.964 241.058V238.741C155.964 238.064 155.416 237.516 154.738 237.516Z" fill="#101700"/>
<path d="M169.797 222.456H167.48C166.803 222.456 166.255 223.004 166.255 223.682V226.001C166.255 226.678 166.803 227.226 167.48 227.226H169.797C170.474 227.226 171.022 226.678 171.022 226.001V223.682C171.022 223.004 170.474 222.456 169.797 222.456Z" fill="#101700"/>
<path d="M154.738 188.371H152.422C151.745 188.371 151.196 188.919 151.196 189.597V191.913C151.196 192.59 151.745 193.139 152.422 193.139H154.738C155.416 193.139 155.964 192.59 155.964 191.913V189.597C155.964 188.919 155.416 188.371 154.738 188.371Z" fill="#101700"/>
<path d="M145.062 230.139H143.098C141.603 230.139 140.392 231.35 140.392 232.845V234.809C140.392 236.305 141.603 237.516 143.098 237.516H145.062C146.558 237.516 147.769 236.305 147.769 234.809V232.845C147.769 231.35 146.558 230.139 145.062 230.139Z" fill="#101700"/>
<path d="M163.405 211.696H161.441C159.945 211.696 158.734 212.907 158.734 214.403V216.367C158.734 217.862 159.945 219.073 161.441 219.073H163.405C164.9 219.073 166.111 217.862 166.111 216.367V214.403C166.111 212.907 164.9 211.696 163.405 211.696Z" fill="#101700"/>
<path d="M126.551 211.696H124.587C123.091 211.696 121.88 212.907 121.88 214.403V216.367C121.88 217.862 123.091 219.073 124.587 219.073H126.551C128.046 219.073 129.257 217.862 129.257 216.367V214.403C129.257 212.907 128.046 211.696 126.551 211.696Z" fill="#101700"/>
</svg>
