<svg width="128" height="166" viewBox="0 0 128 166" fill="none" xmlns="http://www.w3.org/2000/svg">
<path d="M126.957 119.668L48.6279 165.181L11.001 143.464L15.9148 140.612L46.4286 158.223L53.9196 153.876L54.0056 118.466L66.943 110.958L97.4569 128.568L116.253 117.641L116.27 113.5L126.957 119.668Z" fill="#D6DACE" stroke="#D6DACE" stroke-width="0.5" stroke-miterlimit="10" stroke-linecap="round" stroke-linejoin="round"/>
<path d="M28.9387 21.6668C28.784 22.7493 28.5778 23.8145 28.303 24.8627C28.303 24.8799 28.303 24.8799 28.303 24.8799L8.33842 36.3912C6.17357 37.6454 5.09114 40.9443 5.9502 43.7276L18.2691 84.172L14.6955 86.251C14.18 85.7183 13.7848 85.014 13.5272 84.172L0.538078 41.5284C-0.303785 38.745 0.761442 35.4634 2.92629 34.192L27.9079 19.7942C28.1312 19.9487 28.3717 20.0691 28.6294 20.1721L28.784 21.0655C28.8184 21.2717 28.87 21.4779 28.9387 21.6668Z" fill="#101700" stroke="#70745A" stroke-width="0.5" stroke-linecap="round" stroke-linejoin="round"/>
<path d="M23.3712 81.1996L18.2684 84.1722L5.94944 43.7276C5.09038 40.9443 6.17281 37.6454 8.33763 36.3912L28.285 24.8799" stroke="#70745A" stroke-width="0.5" stroke-miterlimit="10" stroke-linecap="round" stroke-linejoin="round"/>
<path d="M46.5481 111.456L46.5138 122.83L46.4279 158.223L15.914 140.612L12.2373 138.482L12.3575 91.7146L46.5481 111.456Z" stroke="#70745A" stroke-width="0.5" stroke-miterlimit="10" stroke-linecap="round" stroke-linejoin="round"/>
<path d="M48.4875 115.816C47.7939 115.816 47.1439 115.748 46.5374 115.622L46.5156 122.83L46.4297 158.223L53.9207 153.876L54.0067 118.466L54.0207 113.825C52.6699 115.04 50.829 115.816 48.4875 115.816Z" stroke="#70745A" stroke-width="0.5" stroke-miterlimit="10" stroke-linecap="round" stroke-linejoin="round"/>
<path d="M97.4057 116.919C97.4229 116.919 97.4573 116.902 97.4916 116.902L97.4573 128.568L63.2666 108.844L63.2838 103.037" stroke="#70745A" stroke-width="0.5" stroke-miterlimit="10" stroke-linecap="round" stroke-linejoin="round"/>
<path d="M97.4062 99.7382C97.4406 99.7382 97.4921 99.7382 97.5265 99.7382L97.578 83.107" stroke="#70745A" stroke-width="0.5" stroke-miterlimit="10" stroke-linecap="round" stroke-linejoin="round"/>
<path d="M97.5608 89.3436L97.5264 99.7383" stroke="#70745A" stroke-width="0.5" stroke-miterlimit="10" stroke-linecap="round" stroke-linejoin="round"/>
<path d="M97.4933 116.902L97.459 128.568L116.255 117.641L116.358 78.4163" stroke="#70745A" stroke-width="0.5" stroke-miterlimit="10" stroke-linecap="round" stroke-linejoin="round"/>
<path d="M119.528 70.3419L119.513 76.5762L47.2754 118.556L47.2908 112.321L119.528 70.3419Z" fill="#D6DACE" stroke="#70745A" stroke-width="0.5" stroke-miterlimit="10" stroke-linecap="round" stroke-linejoin="round"/>
<path d="M106.367 77.9887L102.412 80.2871V86.5126L106.367 84.2141V77.9887Z" fill="#70745A" stroke="#70745A" stroke-width="0.5" stroke-miterlimit="10" stroke-linecap="round" stroke-linejoin="round"/>
<path d="M110.968 75.3155V81.5409L119.511 76.5762L119.526 70.3419L110.968 75.3155Z" fill="#70745A" stroke="#70745A" stroke-width="0.5" stroke-miterlimit="10" stroke-linecap="round" stroke-linejoin="round"/>
<path d="M47.2884 112.325L47.3037 118.56L8.44505 96.1242L8.42969 89.8899L47.2884 112.325Z" fill="#D6DACE" stroke="#70745A" stroke-width="0.5" stroke-miterlimit="10" stroke-linecap="round" stroke-linejoin="round"/>
<path d="M67.1325 44.14L53.9545 51.7512C53.4735 51.5794 53.0268 51.3732 52.5972 51.1327C52.477 48.0402 52.4598 44.8615 52.5628 41.4941C52.6487 37.6111 52.958 35.9102 51.9271 32.1304C51.0509 28.7628 48.9891 25.4985 45.9652 23.8662C45.5701 23.6428 45.1405 23.4538 44.6938 23.2993C44.2471 23.1275 43.7833 23.0071 43.3193 22.9385C43.388 22.6292 43.4568 22.3028 43.5083 21.9591C44.5907 21.7013 45.6217 21.5295 46.3604 21.4094C52.3911 20.4643 53.9717 25.3953 55.8788 32.4395C56.7207 35.5666 57.8547 40.9272 57.9921 42.7139L67.1325 44.14Z" fill="#D6DACE" stroke="#70745A" stroke-width="0.5" stroke-miterlimit="10" stroke-linecap="round" stroke-linejoin="round"/>
<path d="M27.2561 28.4879C25.2459 29.8967 23.3216 31.4259 21.3802 32.8348C19.9026 33.8829 18.4421 34.9481 17.291 36.3053C15.7619 38.1438 14.6623 41.1677 15.3324 43.6073C15.4698 44.226 15.676 44.8273 15.9509 45.4114C16.0196 45.5831 16.1055 45.7379 16.1914 45.9097C16.8443 47.1467 17.6862 48.3321 18.5281 49.3115C21.3114 52.5244 22.6516 56.8713 23.4934 60.9432C23.5794 61.3555 23.6653 61.7507 23.734 62.1458C24.6961 67.4547 24.6617 68.6575 23.6653 73.8805C23.5106 74.7395 23.2014 75.8908 22.9265 77.1105C22.6344 78.4851 22.8577 79.9283 23.5278 81.1139" stroke="#70745A" stroke-width="0.5" stroke-miterlimit="10" stroke-linecap="round" stroke-linejoin="round"/>
<path d="M43.3193 22.9385C43.7832 23.0071 44.2471 23.1274 44.6938 23.2992C45.1405 23.4538 45.5701 23.6428 45.9653 23.8661C48.9891 25.4985 51.0509 28.7629 51.9271 32.1304C52.958 35.9101 52.6487 37.6111 52.5628 41.494C52.4598 44.8617 52.4769 48.0402 52.5972 51.1326C52.6144 51.5794 52.6316 52.0433 52.6659 52.49" stroke="#70745A" stroke-width="0.5" stroke-miterlimit="10" stroke-linecap="round" stroke-linejoin="round"/>
<path d="M28.938 21.6327C28.938 21.6499 28.938 21.6499 28.938 21.6671C28.7834 22.7495 28.5772 23.8147 28.3023 24.8627C28.3023 24.8799 28.3023 24.8799 28.3023 24.8799C28.0274 25.9452 27.6838 26.976 27.2887 27.9896C26.5155 32.4739 37.0304 34.2608 37.7692 30.3778C37.9925 29.2438 38.1128 28.0756 38.1471 26.9072" stroke="#70745A" stroke-width="0.5" stroke-miterlimit="10" stroke-linecap="round" stroke-linejoin="round"/>
<path d="M28.2602 25.0803C30.4476 27.7266 33.2891 30.356 37.4742 30.8818C36.407 33.1956 34.677 35.3504 34.7998 37.8112C29.4536 33.1107 23.4053 27.738 28.2602 25.0803Z" fill="#B4EB38" stroke="#70745A" stroke-width="0.5" stroke-miterlimit="10" stroke-linecap="round" stroke-linejoin="round"/>
<path d="M41.2579 35.24C40.2786 33.3329 37.9936 32.4567 36.3613 31.2025L37.4952 26.7526C38.8869 27.1993 40.3474 26.9244 41.447 26.1169C41.636 26.2543 41.7905 26.4433 41.9108 26.6494C43.2338 29.072 41.2579 35.24 41.2579 35.24Z" fill="#B4EB38" stroke="#70745A" stroke-width="0.5" stroke-miterlimit="10" stroke-linecap="round" stroke-linejoin="round"/>
<path d="M46.7568 69.318C46.7801 69.3216 46.7801 69.3216 46.8034 69.3253C46.8137 69.3385 46.8267 69.3289 46.837 69.3423C46.9974 69.391 47.1501 69.4031 47.2925 69.4021" stroke="#70745A" stroke-width="0.5" stroke-miterlimit="10" stroke-linecap="round" stroke-linejoin="round"/>
<path d="M46.8025 69.3252C46.7797 69.3215 46.7797 69.3215 46.7568 69.318" stroke="#70745A" stroke-width="0.5" stroke-miterlimit="10" stroke-linecap="round" stroke-linejoin="round"/>
<path d="M85.3451 50.6001L119.519 70.3413L47.2887 112.332L8.4248 89.8935L14.6959 86.2511L23.3724 81.1997L47.4261 67.2144" stroke="#70745A" stroke-width="0.5" stroke-miterlimit="10" stroke-linecap="round" stroke-linejoin="round"/>
<path d="M44.2006 63.6284L25.3814 56.8698C25.6672 55.1129 25.8907 52.6628 25.7881 49.4432C25.5545 42.2224 25.1375 37.1043 18.992 36.6226C16.7476 36.4468 15.4996 37.9114 14.8612 39.0244C14.5146 39.6647 14.349 40.3807 14.3231 41.1186C14.1338 50.0517 10.9366 64.6011 21.6162 68.7393C25.8829 70.3985 42.4241 69.568 46.757 69.318C44.3046 69.163 42.4449 65.0776 44.5419 63.7528L44.2006 63.6284Z" fill="#D6DACE" stroke="#70745A" stroke-width="0.5" stroke-miterlimit="10" stroke-linecap="round" stroke-linejoin="round"/>
<path d="M84.8789 38.6418C84.6041 38.4873 84.2432 38.5217 83.8309 38.745L72.9207 45.0506L60.0177 52.49L48.9014 58.9157C48.4719 59.1563 48.1111 59.5514 47.8362 60.0153C47.5784 60.4793 47.4067 61.0118 47.4067 61.4757L47.4926 88.4673C47.4926 88.9312 47.6644 89.2749 47.9221 89.4295L44.2453 87.2991C44.0048 87.1445 43.833 86.8179 43.833 86.3368L43.7471 59.3452C43.7471 58.8985 43.9017 58.4002 44.1594 57.9537C44.4172 57.4554 44.8123 57.043 45.2246 56.7853L53.9527 51.7511L67.1307 44.1399L80.1713 36.6146C80.5836 36.3912 80.9617 36.3568 81.2193 36.5286L84.8789 38.6418Z" fill="#101700" stroke="#70745A" stroke-width="0.5" stroke-linecap="round" stroke-linejoin="round"/>
<path d="M83.8322 38.7443C84.6485 38.273 85.3152 38.6497 85.3179 39.5876L85.3944 66.597C85.3971 67.5351 84.7347 68.679 83.9184 69.1505L48.9755 89.3247C48.1591 89.796 47.4952 89.4176 47.4926 88.4797L47.416 61.4703C47.4133 60.5322 48.0729 59.3898 48.8893 58.9185L83.8322 38.7443Z" stroke="#70745A" stroke-width="0.5" stroke-miterlimit="10" stroke-linecap="round" stroke-linejoin="round"/>
<path d="M79.018 88.1778C78.9503 88.2118 78.8656 88.2118 78.7641 88.1271L69.7602 82.9314L68.7109 82.3221C68.5248 82.2204 68.3724 82.2204 68.2539 82.2881L66.9 83.0667L62.2627 85.7577" stroke="#70745A" stroke-width="0.5" stroke-miterlimit="10" stroke-linecap="round" stroke-linejoin="round"/>
<path d="M80.1854 89.4958C80.1226 89.5676 80.0509 89.6303 79.9701 89.6752L72.3162 94.125C72.3969 94.0804 72.4687 94.0174 72.5315 93.9411C72.8545 93.5732 72.9129 92.9094 72.6841 92.1647L66.6768 72.4021C66.291 71.128 65.4027 69.9346 64.4112 69.3648C64.2317 69.2616 63.8549 69.1704 63.7383 69.2377L71.3922 64.7878C71.5089 64.7249 71.6704 64.7339 71.8454 64.8325C72.8368 65.4067 73.9449 66.6825 74.3307 67.952L80.338 87.7146C80.5668 88.4593 80.5085 89.1278 80.1854 89.4958Z" fill="#101700" stroke="#70745A" stroke-width="0.5" stroke-linecap="round" stroke-linejoin="round"/>
<path d="M64.4076 69.3705C65.4289 69.9026 66.2944 71.1239 66.6785 72.3927L72.6895 92.1624C72.9066 92.9137 72.8564 93.5817 72.5392 93.9489C72.2053 94.3164 71.671 94.3329 71.1032 93.999L62.9552 89.3078C61.6791 88.4621 61.4304 85.2092 62.7214 85.8346L69.0217 89.473C68.8366 88.706 65.0265 76.6668 63.4489 71.4825C63.0286 70.2526 63.2835 68.7849 64.4076 69.3705Z" fill="#B4EB38" stroke="#70745A" stroke-width="0.5" stroke-miterlimit="10" stroke-linecap="round" stroke-linejoin="round"/>
<path d="M43.3697 9.07319C43.2666 9.64009 43.1119 10.19 42.9058 10.7225C42.7168 10.0354 42.459 9.33095 42.167 8.64366C42.0123 9.79487 41.1018 10.7055 39.9677 10.9631C36.3597 11.7877 31.8239 11.2552 29.8481 10.5851C31.4974 14.1246 29.7965 12.561 30.9648 15.7223L29.8481 16.1862C29.5387 15.7223 29.1952 15.2756 28.7485 14.932C28.3189 14.5883 27.7691 14.3479 27.2021 14.3821C26.6523 14.3821 26.1025 14.7087 25.8448 15.207C25.673 15.5505 25.673 15.9457 25.7245 16.3236C25.7932 16.9937 26.0166 17.6294 26.3774 18.1965C24.161 15.8769 22.9068 11.9253 22.924 9.22776C22.924 9.0216 22.9584 8.76405 22.9756 8.48909C23.0958 7.37227 23.8861 6.44442 24.9858 6.16967C24.539 4.82949 24.917 3.33474 25.9307 2.35529C26.0854 2.20072 26.2056 2.08054 26.2916 2.01175C28.1128 0.637173 30.4838 0.121864 32.7516 0.276436C35.0195 0.41381 37.2016 1.16989 39.2806 2.11494C40.5176 2.68184 41.7718 3.35193 42.5621 4.46875C43.5071 5.75734 43.6789 7.49245 43.3697 9.07319Z" fill="#70745A" stroke="#70745A" stroke-width="0.5" stroke-miterlimit="10" stroke-linecap="round" stroke-linejoin="round"/>
<path d="M43.5089 21.959C43.4574 22.3028 43.3886 22.6291 43.3199 22.9385C43.2855 23.1274 43.2512 23.2992 43.2168 23.471C42.9591 24.605 42.3063 25.5326 41.4472 26.1169C40.3476 26.9244 38.8871 27.1994 37.4954 26.7526C37.3237 26.7182 37.1347 26.6495 36.9628 26.5637L30.812 23.7459C30.7089 23.6943 30.623 23.6427 30.5199 23.5914C29.5921 23.0586 28.9564 22.1308 28.7846 21.0656L28.63 20.1721C28.3722 20.0691 28.1318 19.9488 27.9084 19.7942C27.2898 19.399 26.7572 18.8493 26.3792 18.1965C26.0184 17.6293 25.795 16.9936 25.7263 16.3236C25.6748 15.9456 25.6748 15.5505 25.8466 15.2069C26.1043 14.7086 26.6541 14.3821 27.2039 14.3821C27.7709 14.3479 28.3207 14.5882 28.7503 14.932C29.197 15.2755 29.5405 15.7223 29.8499 16.1862L30.9666 15.7223C29.7983 12.561 31.4992 14.1245 29.8499 10.5851C31.8257 11.2552 36.3615 11.7877 39.9695 10.963C41.1036 10.7055 42.0141 9.79483 42.1688 8.64362C42.4608 9.3309 42.7186 10.0354 42.9076 10.7225C44.179 14.8116 44.0587 18.7978 43.5089 21.959Z" stroke="#70745A" stroke-width="0.5" stroke-miterlimit="10" stroke-linecap="round" stroke-linejoin="round"/>
</svg>
