<svg width="119" height="156" viewBox="0 0 119 156" fill="none" xmlns="http://www.w3.org/2000/svg">
<path d="M107.185 134.487L70.8392 155.466L0.25 114.446L9.13025 109.318L9.14644 111.809L16.3769 116.015L45.9777 98.9178L65.6308 110.337L65.7279 144.532L72.9744 148.737L102.43 131.721L107.185 134.487Z" fill="#D6DACE" stroke="#D6DACE" stroke-width="0.5" stroke-linecap="round" stroke-linejoin="round"/>
<path d="M106.004 129.667L102.429 131.721L72.9736 148.737L72.8604 116.209L105.89 97.1384L106.004 129.667Z" stroke="#70745A" stroke-width="0.5" stroke-miterlimit="10" stroke-linecap="round" stroke-linejoin="round"/>
<path d="M72.9744 148.737L65.7279 144.532L65.6309 112.861L72.1171 116.63H72.1495L72.8612 116.209L72.9744 148.737Z" stroke="#70745A" stroke-width="0.5" stroke-miterlimit="10" stroke-linecap="round" stroke-linejoin="round"/>
<path d="M43.8097 100.179L16.3763 116.015L16.344 105.161L16.2793 84.182L43.8097 100.179Z" stroke="#70745A" stroke-width="0.5" stroke-miterlimit="10" stroke-linecap="round" stroke-linejoin="round"/>
<path d="M16.3759 116.015L9.14547 111.809L9.12927 109.318L9.03223 79.9603L16.2788 84.182L16.3435 105.161L16.3759 116.015Z" stroke="#70745A" stroke-width="0.5" stroke-miterlimit="10" stroke-linecap="round" stroke-linejoin="round"/>
<path d="M105.278 32.8097L89.3936 23.6383L89.5715 22.9265C90.4935 22.6354 91.3184 22.0693 91.9169 21.3251C92.208 20.9855 92.4506 20.6297 92.6447 20.2253L102.657 26.016L107.753 31.1436L105.278 32.8097Z" fill="#D6DACE" stroke="#70745A" stroke-width="0.5" stroke-miterlimit="10" stroke-linecap="round" stroke-linejoin="round"/>
<path d="M118.233 40.9133L105.325 83.2763C105.034 84.2468 104.533 85.0232 103.918 85.5895L100.505 83.5998L112.863 43.0971C113.089 42.3691 113.17 41.5927 113.138 40.8326C113.801 40.2017 114.48 39.5223 115.127 38.843C116.195 37.7268 116.923 36.3844 117.279 34.9771C118.427 36.5461 118.848 38.8754 118.233 40.9133Z" fill="#D6DACE" stroke="#70745A" stroke-width="0.5" stroke-miterlimit="10" stroke-linecap="round" stroke-linejoin="round"/>
<path d="M113.138 40.8326C113.17 41.5927 113.089 42.3691 112.863 43.0971L100.505 83.5998" stroke="#70745A" stroke-width="0.5" stroke-miterlimit="10" stroke-linecap="round" stroke-linejoin="round"/>
<path d="M105.278 32.8095L89.3936 23.6383" stroke="#70745A" stroke-width="0.5" stroke-miterlimit="10" stroke-linecap="round" stroke-linejoin="round"/>
<path d="M79.6388 6.1689C78.6845 6.5409 77.0184 7.20414 76.0641 7.57613C75.4171 7.83499 73.7672 8.59518 74.9157 9.40394C75.2392 9.61423 75.6436 9.67899 76.0156 9.82451C76.3714 9.97023 76.7435 10.2451 76.7597 10.6333C76.792 10.9891 76.517 11.2965 76.1935 11.442C75.8862 11.5716 75.5142 11.5716 75.1744 11.5554C73.9775 11.5068 72.7481 10.9891 71.5836 10.9569C71.26 10.9569 70.9041 11.0538 70.5645 11.2156C70.6615 9.27461 68.5588 6.55709 66.4883 5.78071C68.2999 4.53519 69.5778 2.75595 71.632 1.7369C72.7319 1.187 74.576 0.539952 75.7729 0.313475C78.2963 -0.39814 81.9681 5.10148 79.6388 6.1689Z" stroke="#70745A" stroke-width="0.5" stroke-miterlimit="10" stroke-linecap="round" stroke-linejoin="round"/>
<path d="M63.1071 39.4415C58.7074 34.3787 54.8738 28.9438 51.5093 23.1691C49.2772 19.3518 50.3932 14.4507 54.0489 11.9598L64.1099 5.95869C64.7893 5.45736 65.6304 5.44117 66.4877 5.78078C68.5582 6.55716 70.661 9.27469 70.5639 11.2156C70.5477 11.8303 70.3051 12.3642 69.7875 12.7362L60.794 17.7829L70.0948 28.976" stroke="#70745A" stroke-width="0.5" stroke-miterlimit="10" stroke-linecap="round" stroke-linejoin="round"/>
<path d="M69.7876 12.7358C72.6526 10.6136 66.9725 3.82822 64.1076 5.95043L61.3164 7.59401C63.2116 6.08548 68.6583 12.9276 66.7631 14.4363L69.7876 12.7358Z" fill="#D6DACE" stroke="#70745A" stroke-width="0.5" stroke-miterlimit="10" stroke-linecap="round" stroke-linejoin="round"/>
<path d="M93.0322 79.2649C93.1293 70.2228 94.763 65.0306 97.4804 57.3798C98.176 55.4226 98.7098 53.4007 99.098 51.3465" stroke="#70745A" stroke-width="0.5" stroke-miterlimit="10" stroke-linecap="round" stroke-linejoin="round"/>
<path d="M90.7324 32.6448L93 33.9581C94.6175 34.8962 96.4129 36.2548 97.7555 37.8724" stroke="#70745A" stroke-width="0.5" stroke-miterlimit="10" stroke-linecap="round" stroke-linejoin="round"/>
<path d="M63.2045 61.9411C63.5927 51.12 62.9619 40.6061 63.1398 38.6003C63.3986 35.7373 64.3854 32.8904 66.4558 30.9819C68.6556 28.976 71.8098 28.2805 74.8669 28.4099" stroke="#70745A" stroke-width="0.5" stroke-miterlimit="10" stroke-linecap="round" stroke-linejoin="round"/>
<path d="M92.7091 3.80737C92.515 3.67804 92.3209 3.58089 92.1429 3.48395C90.8489 2.88547 89.4417 3.35442 90.3475 4.97194C88.6491 3.92051 87.4683 5.14984 88.5358 6.46013C87.0639 5.84546 86.0772 6.81594 86.7404 7.94832C87.5492 8.59517 88.9402 9.69518 89.7652 10.3422C90.299 10.779 91.6415 11.9759 90.3151 12.4125C89.9431 12.5258 89.5387 12.4773 89.1505 12.5096C88.8756 12.5258 88.5844 12.6066 88.3902 12.7847C85.9963 13.2053 81.726 13.2375 78.3454 12.1538C77.1807 11.7818 76.2749 10.7466 76.2264 9.51727C76.2264 9.50108 76.2264 9.48489 76.2264 9.48489C75.5794 10.7142 75.0617 11.9436 74.6736 13.1729C74.5603 13.1243 74.4471 13.0596 74.3339 13.011L74.2692 12.8978C71.2606 7.73804 74.528 1.20318 80.4644 0.507562C85.6081 -0.090913 90.4445 -0.268817 92.7091 3.80737Z" fill="#70745A"/>
<path d="M95.1024 16.9093C94.326 18.8343 93.5173 20.759 93.2746 20.9046C93.032 21.2606 92.5629 21.3899 91.9159 21.3251C92.4658 20.6943 92.8378 19.9341 92.9997 19.1253C93.0805 18.721 93.1129 18.2842 92.9673 17.9122C92.7408 17.3461 92.1747 16.9741 91.5924 16.9093C91.0101 16.8448 90.3955 17.0389 89.9101 17.3623C89.4087 17.7019 89.0043 18.1387 88.6323 18.6078L87.5 18.0093C88.794 15.2432 87.5648 15.9227 88.4706 13.9493C88.4868 13.9655 88.4868 13.9655 88.5029 13.9817C88.7617 14.2082 89.1175 14.3213 89.4411 14.4023C90.6057 14.6933 91.932 14.564 93.0643 14.8874C93.8893 15.1301 94.6496 16.133 95.1024 16.9093Z" fill="#70745A"/>
<path d="M74.5667 39.6129C72.5818 44.4795 71.276 49.3332 70.8738 54.1702C70.8627 54.3031 70.8655 54.4378 70.8826 54.57C71.1256 56.4452 71.6308 58.1587 72.6991 59.5257C74.1179 58.9949 75.1282 58.0855 75.8076 56.869C75.9387 56.634 75.9979 56.3692 76.003 56.1001C76.0894 51.6211 76.7493 46.4441 77.6995 40.9143L74.5667 39.6129Z" fill="#D6DACE" stroke="#D6DACE" stroke-width="0.5" stroke-miterlimit="10" stroke-linecap="round" stroke-linejoin="round"/>
<path d="M72.7002 59.5257C74.119 58.9949 75.1293 58.0855 75.8087 56.869C75.9399 56.634 75.999 56.3692 76.0042 56.1001C76.0905 51.6211 76.7504 46.4441 77.7006 40.9143" stroke="#70745A" stroke-width="0.5" stroke-miterlimit="10" stroke-linecap="round" stroke-linejoin="round"/>
<path d="M76.2766 34.4172C75.6159 34.615 74.9151 35.0016 74.2003 35.5914C74.0072 36.8776 74.1489 38.2217 74.5648 39.6129L77.6976 40.9143C78.3463 39.5687 79.1476 38.4418 80.1996 37.6747C80.1436 37.3517 80.055 37.083 79.9712 36.8063C78.4101 36.3767 77.1777 35.5235 76.2766 34.4172Z" fill="#70745A" stroke="#70745A" stroke-width="0.5" stroke-linecap="round" stroke-linejoin="round"/>
<path d="M89.0693 24.5926C89.0693 26.6792 89.3605 28.6688 90.0075 30.0436" stroke="#70745A" stroke-width="0.5" stroke-miterlimit="10" stroke-linecap="round" stroke-linejoin="round"/>
<path d="M77.8919 35.6242C76.7273 36.0769 75.5626 36.3196 74.398 36.3034C73.751 36.2872 73.2981 35.98 73.2011 35.527C72.4408 32.2112 73.2981 29.8009 75.4494 28.1351C76.2743 28.8305 77.3258 29.251 78.4419 29.2672C77.6493 30.9657 77.4875 33.1008 77.8919 35.6242Z" fill="#B4EB38" stroke="#70745A" stroke-width="0.5" stroke-miterlimit="10" stroke-linecap="round" stroke-linejoin="round"/>
<path d="M92.998 19.1253C92.9172 19.5135 92.804 19.8695 92.6421 20.2253C92.448 20.6297 92.2055 20.9855 91.9143 21.3251C91.3158 22.0693 90.4909 22.6354 89.5689 22.9265L89.391 23.6383L89.3424 23.8648C89.0351 25.0941 88.1293 26.097 86.9323 26.5337L80.171 28.9762C79.5887 29.1863 79.0063 29.2672 78.4402 29.2672C77.3241 29.251 76.2727 28.8305 75.4477 28.135C74.5743 27.407 73.9758 26.3718 73.7979 25.1425C73.345 21.8914 73.2641 17.5888 74.6714 13.173C75.0595 11.9436 75.5772 10.7143 76.2242 9.48497C76.2242 9.48497 76.2242 9.50116 76.2242 9.51735C76.2727 10.7467 77.1785 11.7819 78.3432 12.1539C82.0959 13.3509 86.9647 13.1892 89.1321 12.6391C87.0617 16.2623 89.0189 14.7581 87.4984 18.0093L88.0808 18.3166L88.6307 18.6078C88.7601 18.4461 88.8895 18.2842 89.0189 18.1387C89.2939 17.8476 89.5851 17.5888 89.9085 17.3623C90.3938 17.0389 91.0085 16.8448 91.5908 16.9093C92.1731 16.9741 92.7392 17.3461 92.9657 17.9122C93.1113 18.2842 93.0789 18.721 92.998 19.1253Z" stroke="#70745A" stroke-width="0.5" stroke-miterlimit="10" stroke-linecap="round" stroke-linejoin="round"/>
<path d="M89.7632 29.6789C88.7864 32.9209 84.719 34.8581 77.8873 35.6285C77.8668 37.1373 78.3539 38.5374 79.5052 39.7956C86.8357 39.5116 90.2528 37.1924 90.6934 33.3255C90.7719 32.6356 90.7336 31.9263 90.5419 31.2475C90.3692 30.6358 90.1135 30.109 89.7632 29.6789Z" fill="#B4EB38" stroke="#B4EB38" stroke-width="0.5" stroke-miterlimit="10" stroke-linecap="round" stroke-linejoin="round"/>
<path d="M83.7083 39.3256C82.4802 39.5722 81.0894 39.7341 79.5051 39.7956C78.3539 38.5374 77.8667 37.1373 77.8873 35.6285C84.7189 34.8581 88.7864 32.9209 89.7632 29.6789C90.1135 30.109 90.3691 30.6358 90.5419 31.2475C90.7336 31.9263 90.7719 32.6356 90.6933 33.3255C90.5442 34.6344 90.0446 35.7612 89.177 36.6966" stroke="#70745A" stroke-width="0.5" stroke-miterlimit="10" stroke-linecap="round" stroke-linejoin="round"/>
<path d="M95.231 17.1196C95.1986 17.0548 95.1501 16.9902 95.1015 16.9093C94.6487 16.1329 93.8884 15.13 93.0634 14.8874C91.9311 14.5639 90.6048 14.6933 89.4402 14.4022C89.1166 14.3213 88.7608 14.2081 88.502 13.9817C88.4859 13.9655 88.4859 13.9655 88.4697 13.9493C88.2108 13.739 88.0653 13.367 88.1946 13.0596C88.227 12.9464 88.3079 12.8493 88.3887 12.7847C88.5829 12.6066 88.8741 12.5258 89.149 12.5097C89.5372 12.4773 89.9416 12.5258 90.3136 12.4125C91.64 11.9759 90.2975 10.779 89.7637 10.3422C88.9387 9.69518 87.5477 8.59518 86.7389 7.94833C86.0757 6.81595 87.0624 5.84547 88.5343 6.46014C87.4668 5.14985 88.6476 3.92052 90.346 4.97195C89.4402 3.35442 90.8474 2.88548 92.1414 3.48395C92.3194 3.5809 92.5135 3.67805 92.7076 3.80738C93.7267 4.40585 94.956 5.34395 95.7 6.03957C97.3661 7.6409 98.0616 9.72756 99.4689 11.4582C102.623 14.9359 98.3042 19.4165 95.231 17.1196Z" stroke="#70745A" stroke-width="0.5" stroke-miterlimit="10" stroke-linecap="round" stroke-linejoin="round"/>
<path d="M90.3418 4.9657C91.2279 5.44709 91.9547 6.06333 92.4273 6.89461" stroke="#70745A" stroke-width="0.5" stroke-miterlimit="10" stroke-linecap="round" stroke-linejoin="round"/>
<path d="M88.5693 6.44659C89.4183 6.90783 90.1212 7.49268 90.5942 8.27222" stroke="#70745A" stroke-width="0.5" stroke-miterlimit="10" stroke-linecap="round" stroke-linejoin="round"/>
<path d="M117.28 34.977C116.924 36.3843 116.196 37.7267 115.129 38.8429C114.482 39.5222 113.803 40.2016 113.139 40.8325C108.804 45.0542 104.033 48.5965 98.3066 51.7993C93.4379 53.3683 89.4101 42.2397 97.5626 38.0018L105.278 32.8096L107.753 31.1435L102.658 26.0159L95.7832 19.0767C93.4055 16.4241 100.086 10.698 102.48 13.3508L115 26.2424C117.313 28.6201 118.089 31.9685 117.28 34.977Z" stroke="#70745A" stroke-width="0.5" stroke-miterlimit="10" stroke-linecap="round" stroke-linejoin="round"/>
<path d="M105.509 16.5647L102.469 13.3575C100.09 10.7105 93.3996 16.4202 95.7794 19.0672L98.5473 21.8817C97.049 19.1016 103.228 14.0457 105.509 16.5647Z" fill="#D6DACE" stroke="#70745A" stroke-width="0.5" stroke-miterlimit="10" stroke-linecap="round" stroke-linejoin="round"/>
<path d="M2.34277 70.0564L2.35761 76.0796L72.1493 116.638L72.1345 110.614L2.34277 70.0564Z" fill="#101700" stroke="#70745A" stroke-width="0.5" stroke-linecap="round" stroke-linejoin="round"/>
<path d="M15.0557 77.4444L18.877 79.6649V85.6797L15.0557 83.459V77.4444Z" fill="#70745A" stroke="#70745A" stroke-width="0.5" stroke-miterlimit="10" stroke-linecap="round" stroke-linejoin="round"/>
<path d="M10.6117 74.8618V80.8763L2.35766 76.0796L2.34277 70.0564L10.6117 74.8618Z" fill="#70745A" stroke="#70745A" stroke-width="0.5" stroke-miterlimit="10" stroke-linecap="round" stroke-linejoin="round"/>
<path d="M72.136 110.618L72.1211 116.642L109.664 94.9658L109.679 88.9426L72.136 110.618Z" fill="#101700" stroke="#70745A" stroke-width="0.5" stroke-linecap="round" stroke-linejoin="round"/>
<path d="M28.9282 54.727L39.8951 48.3863L95.6353 80.7853L103.917 85.5893L109.676 88.9377L72.1325 110.613L2.33594 70.0611L22.2802 58.5605" stroke="#70745A" stroke-width="0.5" stroke-miterlimit="10" stroke-linecap="round" stroke-linejoin="round"/>
<path d="M42.8389 62.8146L49.3899 59.0297C49.8428 58.7708 50.231 58.7546 50.5222 58.9163L81.2715 76.4504C80.9642 76.2725 80.8509 76.8062 80.3981 76.5312L58.2216 89.342" stroke="#70745A" stroke-width="0.5" stroke-miterlimit="10" stroke-linecap="round" stroke-linejoin="round"/>
<path d="M58.2155 89.3492L58.5463 92.9107L57.0674 93.7605L81.8343 79.4654L81.8301 77.5276C81.8272 76.5291 81.1223 76.1326 80.2437 76.6312L58.2155 89.3492Z" fill="#B4EB38" stroke="#70745A" stroke-width="0.5" stroke-miterlimit="10" stroke-linecap="round" stroke-linejoin="round"/>
<path d="M63.0471 71.321L57.9657 68.3661C57.5323 68.114 56.9972 68.1132 56.5629 68.3638L52.9996 70.42C52.6335 70.6313 52.6328 71.1593 52.9983 71.3715L58.085 74.3252C58.5184 74.5768 59.0533 74.5774 59.4873 74.3268L63.0456 72.2721C63.4113 72.061 63.4122 71.5335 63.0471 71.321Z" fill="#101700" stroke="#101700" stroke-width="0.5" stroke-miterlimit="10" stroke-linecap="round" stroke-linejoin="round"/>
<path d="M21.2327 50.252L51.4791 67.8386C51.9592 68.1178 52.2816 68.6051 52.3509 69.1562L55.3593 93.1116C55.4662 93.976 56.1559 94.287 56.9816 93.811L57.069 93.7624L59.2167 92.5331L58.8864 89.9005L56.066 67.4208C55.9407 66.4223 55.3567 65.5395 54.4868 65.0336L25.4727 48.1618C25.0401 47.9102 24.5086 47.9055 24.0728 48.1517C23.3389 48.566 21.6115 49.5331 21.6115 49.5331C21.3784 49.6691 21.2035 50.0091 21.2327 50.252Z" fill="#D6DACE" stroke="#70745A" stroke-width="0.5" stroke-miterlimit="10" stroke-linecap="round" stroke-linejoin="round"/>
<path d="M34.5151 53.4197L30.5605 55.6691L33.2732 57.2451L37.2277 54.996L34.5151 53.4197Z" fill="#70745A" stroke="#70745A" stroke-width="0.5" stroke-miterlimit="10" stroke-linecap="round" stroke-linejoin="round"/>
<path d="M21.2327 50.2519L25.4682 52.7192L29.4228 50.4604L25.4703 48.163C25.0377 47.9115 24.5065 47.9069 24.0708 48.1528C23.3376 48.5666 21.6115 49.5329 21.6115 49.5329C21.3784 49.669 21.2035 50.009 21.2327 50.2519Z" fill="#70745A" stroke="#70745A" stroke-width="0.5" stroke-miterlimit="10" stroke-linecap="round" stroke-linejoin="round"/>
<path d="M55.8276 93.9196L26.2914 76.7577C25.1105 76.0784 24.3342 74.8813 24.1562 73.5388L21.2285 50.2465L42.8388 62.8146L51.4764 67.8289C51.9617 68.104 52.2852 68.5893 52.3499 69.1392L54.6145 87.3039L55.3423 93.1108C55.407 93.499 55.5849 93.774 55.8276 93.9196Z" stroke="#70745A" stroke-width="0.5" stroke-miterlimit="10" stroke-linecap="round" stroke-linejoin="round"/>
<path d="M30.731 70.8508C30.6824 72.5411 31.8093 74.5713 33.247 75.4067C34.6847 76.2325 35.899 75.5527 35.9476 73.8623C36.0059 72.1818 34.879 70.1417 33.4413 69.316C32.0036 68.4805 30.7893 69.1702 30.731 70.8508Z" fill="#101700" stroke="#101700" stroke-width="0.5" stroke-miterlimit="10" stroke-linecap="round" stroke-linejoin="round"/>
<path d="M35.9487 73.8622C36.007 72.1817 34.8801 70.1417 33.4424 69.3159" stroke="#70745A" stroke-width="0.5" stroke-miterlimit="10" stroke-linecap="round" stroke-linejoin="round"/>
</svg>
