<svg width="185" height="131" viewBox="0 0 185 131" fill="none" xmlns="http://www.w3.org/2000/svg">
<path d="M182.03 72.1171L84.4352 128.84C81.1923 130.72 75.9153 130.72 72.634 128.84L10.8839 93.1868L2.74763 88.4854C-0.514409 86.6049 -0.533616 83.5347 2.70933 81.6542L4.45548 80.6371L10.8454 84.3213L72.5956 119.975C75.8578 121.855 81.154 121.855 84.3969 119.975L180.246 64.2881L181.992 65.286C185.273 67.1664 185.293 70.2366 182.03 72.1171Z" fill="#D6DACE" stroke="#D6DACE" stroke-width="0.5" stroke-miterlimit="10" stroke-linecap="round" stroke-linejoin="round"/>
<path d="M85.582 10.4432L100.3 1.90423C103.562 0.00453795 108.839 0.00453795 112.12 1.88502L120.257 6.58623L116.611 8.69721" stroke="#70745A" stroke-width="0.5" stroke-miterlimit="10" stroke-linecap="round" stroke-linejoin="round"/>
<path d="M59.6623 25.5261L2.70934 58.6079C-0.533602 60.5076 -0.514453 63.5586 2.7477 65.4391L10.8838 70.1405L110.743 12.1128" stroke="#70745A" stroke-width="0.5" stroke-miterlimit="10" stroke-linecap="round" stroke-linejoin="round"/>
<path d="M184.465 45.6943L184.426 59.8556C184.407 61.1029 183.601 62.331 181.989 63.2713L180.243 64.2884L84.3942 119.975C81.1512 121.855 75.855 121.855 72.5929 119.975L10.8427 84.3216L4.45272 80.6374L2.70658 79.6203C1.05623 78.6801 0.23112 77.4328 0.250328 76.1854L0.288743 62.024C0.288743 63.2521 1.09465 64.4994 2.74487 65.4589L10.8811 70.1603L16.6953 73.5184L72.6313 105.813C75.9125 107.694 81.1895 107.694 84.4325 105.813L168.039 57.2267L182.028 49.0906C183.64 48.1503 184.446 46.9222 184.465 45.6943Z" fill="#D6DACE" stroke="#70745A" stroke-width="0.5" stroke-miterlimit="10" stroke-linecap="round" stroke-linejoin="round"/>
<path d="M21.7677 76.4369L10.881 70.1513L2.74487 65.4498C1.09465 64.4904 0.288743 63.243 0.288743 62.0151L0.250328 76.1766C0.23112 77.4237 1.05623 78.6711 2.70646 79.6113L10.8427 84.3127L21.7677 90.6206V76.4369Z" fill="#70745A"/>
<path d="M28.1406 80.1145V94.2982L37.8258 99.8903V85.7065L28.1406 80.1145Z" fill="#70745A"/>
<path d="M170.518 35.6193L181.993 42.2589C185.274 44.1394 185.294 47.2095 182.031 49.09L84.4362 105.813C81.1933 107.693 75.9163 107.693 72.635 105.813L10.8848 70.1595L110.764 12.1128" stroke="#70745A" stroke-width="0.5" stroke-miterlimit="10" stroke-linecap="round" stroke-linejoin="round"/>
<path d="M17.6375 57.9839C19.5108 59.2113 19.194 61.1691 16.6266 62.1187C15.1415 62.6594 13.1489 62.6594 11.6576 62.104C11.4301 62.0164 11.2278 61.9288 11.0255 61.8264C10.8609 61.717 10.6963 61.5929 10.5442 61.4612C9.59356 60.6067 9.57436 59.4451 10.5154 58.5904C12.1338 57.0929 15.5127 56.9029 17.6375 57.9839Z" fill="#70745A"/>
<path d="M28.3309 51.6975C30.2042 52.9247 29.8874 54.8825 27.32 55.8321C25.8349 56.3727 23.8423 56.3727 22.351 55.8173C22.1235 55.7299 21.9212 55.6421 21.7188 55.5397C21.5543 55.4303 21.3896 55.3062 21.2376 55.1746C20.2869 54.32 20.2677 53.1584 21.2088 52.3037C22.8272 50.8062 26.206 50.6162 28.3309 51.6975Z" fill="#70745A"/>
<path d="M39.034 45.4096C40.9073 46.6368 40.5905 48.5946 38.0231 49.5442C36.538 50.0849 34.5454 50.0849 33.0541 49.5297C32.8267 49.4421 32.6243 49.3543 32.422 49.2521C32.2574 49.1425 32.0927 49.0184 31.9407 48.8867C30.99 48.0322 30.9708 46.8706 31.9119 46.0159C33.5303 44.5184 36.9091 44.3284 39.034 45.4096Z" fill="#70745A"/>
<path d="M132.027 40.2674L132.076 17.6084L161.625 17.6138L161.576 40.2726" stroke="#70745A" stroke-width="0.5" stroke-miterlimit="10" stroke-linecap="round" stroke-linejoin="round"/>
<path d="M152.842 5.30173C158.729 8.7008 161.654 13.1572 161.632 17.6139L132.083 17.6085L110.768 5.30197C116.522 1.95818 124.044 0.272587 131.595 0.250334C139.27 0.222694 146.964 1.90852 152.842 5.30173Z" fill="#B4EB38" stroke="#70745A" stroke-width="0.5" stroke-miterlimit="10" stroke-linecap="round" stroke-linejoin="round"/>
<path d="M110.719 19.884L110.757 5.31958L132.076 17.6196L132.038 32.165" stroke="#70745A" stroke-width="0.5" stroke-miterlimit="10" stroke-linecap="round" stroke-linejoin="round"/>
<path d="M132.027 44.1877L132.085 24.3271L152.982 36.3969L152.943 56.2577" stroke="#70745A" stroke-width="0.5" stroke-miterlimit="10" stroke-linecap="round" stroke-linejoin="round"/>
<path d="M161.628 24.3381L161.579 44.1952C161.566 48.5579 158.68 52.9209 152.936 56.2593L152.984 36.4025L161.628 24.3381Z" stroke="#70745A" stroke-width="0.5" stroke-miterlimit="10" stroke-linecap="round" stroke-linejoin="round"/>
<path d="M161.625 24.3384C161.612 28.7014 158.726 33.0643 152.981 36.4027L132.076 24.3333L161.625 24.3384Z" fill="#101700" stroke="#70745A" stroke-width="0.5" stroke-miterlimit="10" stroke-linecap="round" stroke-linejoin="round"/>
<path d="M152.989 44.2487L152.941 56.2598C147.206 59.5928 139.683 61.2784 132.141 61.3061C124.448 61.3335 116.744 59.6535 110.857 56.2547C104.98 52.8612 102.044 48.4102 102.076 43.9589L102.125 31.948C102.093 36.399 105.028 40.8501 110.906 44.2435C116.793 47.6424 124.496 49.3223 132.19 49.2949C139.731 49.2673 147.254 47.5817 152.989 44.2487Z" stroke="#70745A" stroke-width="0.5" stroke-miterlimit="10" stroke-linecap="round" stroke-linejoin="round"/>
<path d="M152.98 44.2488C147.245 47.5818 139.722 49.2674 132.18 49.2951C124.487 49.3225 116.783 47.6425 110.896 44.2437C105.019 40.8502 102.083 36.3992 102.115 31.9479C102.129 27.5739 105.005 23.2166 110.759 19.8728L132.075 32.1793L152.98 44.2488Z" fill="#D6DACE" stroke="#70745A" stroke-width="0.5" stroke-miterlimit="10" stroke-linecap="round" stroke-linejoin="round"/>
<path d="M64.288 62.7153L40.6015 76.4805L31.2168 71.0623L54.9033 57.2971L64.288 62.7153Z" fill="#101700" stroke="#101700" stroke-width="0.5" stroke-miterlimit="10" stroke-linecap="round" stroke-linejoin="round"/>
<path d="M96.2011 65.9551L58.5702 87.8238L49.1855 82.4056L86.8164 60.5369L96.2011 65.9551Z" fill="#B4EB38" stroke="#B4EB38" stroke-width="0.5" stroke-miterlimit="10" stroke-linecap="round" stroke-linejoin="round"/>
<path d="M122.551 72.4334L76.5488 99.1668L67.1641 93.7486L113.166 67.0151L122.551 72.4334Z" fill="#D6DACE" stroke="#D6DACE" stroke-width="0.5" stroke-miterlimit="10" stroke-linecap="round" stroke-linejoin="round"/>
<path d="M64.288 62.7158L40.6015 76.481L31.2168 71.0628" stroke="#70745A" stroke-width="0.5" stroke-miterlimit="10" stroke-linecap="round" stroke-linejoin="round"/>
<path d="M96.2011 65.9556L58.5702 87.8243L49.1855 82.4061" stroke="#70745A" stroke-width="0.5" stroke-miterlimit="10" stroke-linecap="round" stroke-linejoin="round"/>
<path d="M122.551 72.4338L76.5488 99.1673L67.1641 93.749" stroke="#70745A" stroke-width="0.5" stroke-miterlimit="10" stroke-linecap="round" stroke-linejoin="round"/>
</svg>
