<svg width="140" height="131" viewBox="0 0 140 131" fill="none" xmlns="http://www.w3.org/2000/svg">
<path d="M32.0185 33.9144L39.0287 37.9767C40.3687 37.7652 41.7228 37.5959 43.091 37.483V32.3347C39.325 32.6027 35.6012 33.1245 32.0185 33.9144ZM59.5234 32.7437V37.9626C60.8069 38.1601 62.0623 38.3998 63.3036 38.6678V33.2938C62.0623 33.0823 60.7929 32.8989 59.5234 32.7437ZM84.0098 40.431C82.6417 39.6411 81.217 38.9077 79.736 38.2447L79.7219 45.2408C81.8377 46.6373 83.6713 48.1887 85.1806 49.8531C88.876 53.9578 90.4558 58.5842 89.7223 63.2389C88.8478 68.7822 84.6728 73.987 77.9729 77.8799C74.094 80.1368 69.5803 81.8576 64.7282 83.0142C59.8761 84.1567 54.6854 84.7491 49.4665 84.7491C43.218 84.7491 36.8989 83.9028 31.0312 82.1679C27.3215 81.0536 23.9222 79.6149 20.9461 77.894C19.2816 76.949 17.7725 75.9194 16.4466 74.8191C11.143 70.503 8.46301 65.1714 8.8862 59.7973C9.35171 53.8308 13.5691 48.2311 20.7628 44.056C21.4397 43.6611 22.145 43.2803 22.8644 42.9276L22.8785 38.1319L28.8308 34.6621C23.626 36.0302 18.7597 37.9626 14.5001 40.431C5.13423 45.8615 -0.0140746 53.1256 2.89e-05 60.8975C2.89e-05 68.7116 5.23304 76.0322 14.7116 81.505C24.3313 87.0624 36.9412 89.8411 49.5229 89.8411C55.8138 89.8411 62.1047 89.15 68.0289 87.7534C73.9247 86.3712 79.4539 84.2837 84.2355 81.505C93.6012 76.0745 98.7355 68.7963 98.7214 61.0244C98.7214 53.2102 93.4885 45.8896 84.0098 40.431Z" fill="#D6DACE"/>
<path d="M84.1163 41.3036C102.721 52.3203 102.677 69.9762 83.8828 80.8907C64.9428 91.9074 34.1399 91.9074 15.0686 80.8907C-4.00266 69.8886 -4.10484 52.0431 14.8497 41.0409C15.5793 40.6178 16.3235 40.2092 17.0823 39.8298" stroke="#70745A" stroke-width="0.5" stroke-miterlimit="10" stroke-linecap="round" stroke-linejoin="round"/>
<path d="M83.8822 98.4031C64.9391 109.419 34.1336 109.419 15.0635 98.4031C4.16028 92.1121 -0.536717 83.5928 0.972533 75.3835C2.1292 81.5757 6.82619 87.5985 15.0493 92.3378C34.1195 103.34 64.9108 103.34 83.8681 92.3378C91.9785 87.6127 96.6049 81.6462 97.7193 75.4965C99.2708 83.6633 94.6444 92.1404 83.8822 98.4031Z" fill="#D6DACE" stroke="#D6DACE" stroke-width="0.5" stroke-miterlimit="10" stroke-linecap="round" stroke-linejoin="round"/>
<path d="M18.4823 46.3524C7.11543 54.407 6.59013 65.876 16.8919 74.2808C17.3734 74.6748 17.8841 75.0688 18.4094 75.4335C19.2995 76.0756 20.2625 76.6884 21.2986 77.2866C24.2898 79.0231 27.6605 80.4239 31.2355 81.4891C32.6071 81.8976 33.9933 82.2478 35.4233 82.5543C49.6209 85.6477 66.2263 83.8967 77.6223 77.2721C90.1566 69.9763 92.5058 59.0325 84.6555 50.3213C84.4657 50.117 84.2907 49.9127 84.0864 49.7231" stroke="#70745A" stroke-width="0.5" stroke-miterlimit="10" stroke-linecap="round" stroke-linejoin="round"/>
<path d="M98.03 61.1091L98.0017 72.5484C98.0017 73.5357 97.903 74.5231 97.7197 75.4964C96.6053 81.6461 91.9789 87.6126 83.8685 92.3377C64.9112 103.34 34.1199 103.34 15.0497 92.3377C6.82659 87.5984 2.12959 81.5756 0.972932 75.3835C0.775396 74.3397 0.676758 73.31 0.676758 72.2662L0.704965 60.8976C0.704965 63.8456 1.49485 66.7935 3.10282 69.6286C5.40196 73.7473 9.40771 77.6262 15.078 80.8985C34.134 91.9005 64.9395 91.9005 83.8826 80.8985C89.4258 77.6685 93.333 73.8742 95.618 69.8261C97.2119 67.0051 98.0158 64.0571 98.03 61.1091Z" stroke="#70745A" stroke-width="0.5" stroke-miterlimit="10" stroke-linecap="round" stroke-linejoin="round"/>
<path d="M9.83925 77.3266C3.74107 72.4069 0.687356 66.6154 0.703795 60.8285L0.682683 72.2665C0.666243 78.0604 3.72671 83.8586 9.83925 88.7819V77.3266Z" fill="#70745A" stroke="#70745A" stroke-width="0.5" stroke-miterlimit="10" stroke-linecap="round" stroke-linejoin="round"/>
<path d="M24.9272 85.2475C22.7373 84.5021 20.6093 83.6728 18.5938 82.7184V94.1662C20.6095 95.1201 22.7375 95.9486 24.9272 96.6932V85.2475Z" fill="#70745A" stroke="#70745A" stroke-width="0.5" stroke-miterlimit="10" stroke-linecap="round" stroke-linejoin="round"/>
<path d="M63.3594 5.0086L71.5478 0.25L79.7921 5.00981L71.6037 9.7685L63.3594 5.0086Z" fill="#101700" stroke="#101700" stroke-width="0.5" stroke-miterlimit="10" stroke-linecap="round" stroke-linejoin="round"/>
<path d="M71.6034 9.76837L71.5195 54.8923L79.708 50.1337L79.7918 5.00977L71.6034 9.76837Z" fill="#B4EB38" stroke="#B4EB38" stroke-width="0.5" stroke-miterlimit="10" stroke-linecap="round" stroke-linejoin="round"/>
<path d="M71.6036 9.76844L71.5197 54.8923L63.2754 50.1324L63.3592 5.00854L71.6036 9.76844Z" stroke="#70745A" stroke-width="0.5" stroke-miterlimit="10" stroke-linecap="round" stroke-linejoin="round"/>
<path d="M79.792 5.00989L71.6035 9.76849" stroke="#70745A" stroke-width="0.5" stroke-miterlimit="10" stroke-linecap="round" stroke-linejoin="round"/>
<path d="M43.1221 20.8852L51.3105 16.1266L59.5548 20.8865L51.3664 25.6451L43.1221 20.8852Z" fill="#101700" stroke="#101700" stroke-width="0.5" stroke-miterlimit="10" stroke-linecap="round" stroke-linejoin="round"/>
<path d="M51.3661 25.6451L51.2822 66.6655L59.4707 61.9069L59.5545 20.8865L51.3661 25.6451Z" fill="#B4EB38" stroke="#B4EB38" stroke-width="0.5" stroke-miterlimit="10" stroke-linecap="round" stroke-linejoin="round"/>
<path d="M51.3663 25.645L51.2825 66.6654L43.0381 61.9056L43.122 20.8851L51.3663 25.645Z" stroke="#70745A" stroke-width="0.5" stroke-miterlimit="10" stroke-linecap="round" stroke-linejoin="round"/>
<path d="M59.5556 20.8865L51.3672 25.6451" stroke="#70745A" stroke-width="0.5" stroke-miterlimit="10" stroke-linecap="round" stroke-linejoin="round"/>
<path d="M22.8857 38.1299L31.0742 33.3713L39.3186 38.1312L31.1302 42.8898L22.8857 38.1299Z" fill="#101700" stroke="#101700" stroke-width="0.5" stroke-miterlimit="10" stroke-linecap="round" stroke-linejoin="round"/>
<path d="M31.1288 42.8897L31.0449 78.4389L39.2333 73.6804L39.3172 38.1312L31.1288 42.8897Z" fill="#B4EB38" stroke="#B4EB38" stroke-width="0.5" stroke-miterlimit="10" stroke-linecap="round" stroke-linejoin="round"/>
<path d="M31.129 42.8897L31.0451 78.4389L22.8008 73.679L22.8846 38.1298L31.129 42.8897Z" stroke="#70745A" stroke-width="0.5" stroke-miterlimit="10" stroke-linecap="round" stroke-linejoin="round"/>
<path d="M39.3183 38.1312L31.1299 42.8897" stroke="#70745A" stroke-width="0.5" stroke-miterlimit="10" stroke-linecap="round" stroke-linejoin="round"/>
<path d="M76.0472 91.1461C76.0096 92.8358 76.8008 94.247 78.0191 94.9367L93.0559 103.559C93.1461 103.606 93.2359 103.677 93.3263 103.725C94.0245 104.174 94.8654 104.376 95.8045 104.26C98.2783 103.972 100.319 101.573 100.378 98.9239C100.419 97.0743 99.4927 95.5916 98.0906 94.9437L82.9865 86.2743C82.31 85.8709 81.4916 85.6928 80.6208 85.8105C78.1471 86.0982 76.1066 88.4746 76.0472 91.1461Z" fill="#B4EB38"/>
<path d="M111.713 98.6495L95.6418 89.4387C94.4184 88.7444 92.9324 88.4255 91.3082 88.6118C86.8493 89.1478 83.0999 93.4799 82.9926 98.3059C82.9234 101.417 84.3593 103.99 86.5865 105.247L123.448 126.373C121.221 125.085 119.753 122.543 119.822 119.431C119.961 114.606 123.679 110.273 128.17 109.738C129.762 109.551 131.248 109.87 132.503 110.565L111.713 98.6495Z" fill="#D6DACE" stroke="#D6DACE" stroke-width="0.5" stroke-miterlimit="10" stroke-linecap="round" stroke-linejoin="round"/>
<path d="M111.713 98.6495L95.6418 89.4387C94.4184 88.7444 92.9324 88.4255 91.3082 88.6118C86.8493 89.1478 83.0999 93.4799 82.9926 98.3059C82.9234 101.417 84.3593 103.99 86.5865 105.247L123.448 126.373C121.221 125.085 119.753 122.543 119.822 119.431C119.961 114.606 123.679 110.273 128.17 109.738C129.762 109.551 131.248 109.87 132.503 110.565" stroke="#70745A" stroke-width="0.5" stroke-miterlimit="10" stroke-linecap="round" stroke-linejoin="round"/>
<path d="M134.715 122.35C137.215 117.986 136.219 112.716 132.489 110.578C128.76 108.441 123.709 110.245 121.208 114.608C118.707 118.972 119.703 124.242 123.433 126.379C127.163 128.517 132.214 126.713 134.715 122.35Z" fill="#70745A" stroke="#70745A" stroke-width="0.5" stroke-miterlimit="10" stroke-linecap="round" stroke-linejoin="round"/>
</svg>
