<svg width="172" height="131" viewBox="0 0 172 131" fill="none" xmlns="http://www.w3.org/2000/svg">
<path d="M105.539 115.004L105.503 118.632L85.9856 130.25L66.4498 118.704L66.4141 115.004L70.4177 112.645L73.4919 110.822L85.914 118.167L85.9856 97.7202L85.9319 118.167L98.3719 110.768L105.539 115.004Z" fill="#D6DACE" stroke="#D6DACE" stroke-width="0.5" stroke-miterlimit="10" stroke-linecap="round" stroke-linejoin="round"/>
<path d="M51.5806 105.817L51.5985 109.928L38.5508 102.224V100.097L46.9514 95.1287L58.301 101.849L51.5806 105.817Z" fill="#D6DACE" stroke="#D6DACE" stroke-width="0.5" stroke-miterlimit="10" stroke-linecap="round" stroke-linejoin="round"/>
<path d="M23.6977 90.8747L23.7156 93.4485L15.1185 88.3725L15.1006 86.4242L23.6621 81.3661L31.7229 86.1203L23.6977 90.8747Z" fill="#D6DACE" stroke="#D6DACE" stroke-width="0.5" stroke-miterlimit="10" stroke-linecap="round" stroke-linejoin="round"/>
<path d="M133.424 100.097L133.406 102.028L120.358 109.803L120.376 105.817L113.513 101.76L124.845 95.0215L129.384 97.7202L133.424 100.097Z" fill="#D6DACE" stroke="#D6DACE" stroke-width="0.5" stroke-miterlimit="10" stroke-linecap="round" stroke-linejoin="round"/>
<path d="M156.873 86.4242V88.0864L148.258 93.1984V90.8747L140.019 85.9952L148.044 81.2052L156.873 86.4242Z" fill="#D6DACE" stroke="#D6DACE" stroke-width="0.5" stroke-miterlimit="10" stroke-linecap="round" stroke-linejoin="round"/>
<path d="M26.9834 45.5467L26.9762 51.8966L14.7408 44.6643L14.7078 52.8245L9.48926 49.7399L9.52943 35.2296L26.9834 45.5467Z" fill="#101700" stroke="#101700" stroke-width="0.5" stroke-miterlimit="10" stroke-linecap="round" stroke-linejoin="round"/>
<path d="M9.5293 35.2297L18.2712 30.0286L35.7251 40.3456L26.9832 45.5468L9.5293 35.2297Z" stroke="#70745A" stroke-width="0.5" stroke-miterlimit="10" stroke-linecap="round" stroke-linejoin="round"/>
<path d="M50.9848 31.1257L50.9777 37.4758L37.95 29.7751L37.9169 37.9354L32.6982 34.8506L32.7384 20.3403L50.9848 31.1257Z" fill="#101700" stroke="#101700" stroke-width="0.5" stroke-miterlimit="10" stroke-linecap="round" stroke-linejoin="round"/>
<path d="M50.9787 37.4759L37.951 29.7751L37.918 37.9355" stroke="#70745A" stroke-width="0.5" stroke-miterlimit="10" stroke-linecap="round" stroke-linejoin="round"/>
<path d="M32.7393 20.3404L41.4812 15.1393L59.7276 25.9247L50.9857 31.1258L32.7393 20.3404Z" stroke="#70745A" stroke-width="0.5" stroke-miterlimit="10" stroke-linecap="round" stroke-linejoin="round"/>
<path d="M74.5913 16.2367L74.5841 22.5868L61.5564 14.8862L61.5233 23.0464L56.3047 19.9616L56.3449 5.45129L74.5913 16.2367Z" fill="#101700" stroke="#101700" stroke-width="0.5" stroke-miterlimit="10" stroke-linecap="round" stroke-linejoin="round"/>
<path d="M74.5842 22.5868L61.5565 14.8862L61.5234 23.0464" stroke="#70745A" stroke-width="0.5" stroke-miterlimit="10" stroke-linecap="round" stroke-linejoin="round"/>
<path d="M56.3447 5.45115L65.0866 0.25L83.333 11.0354L74.5912 16.2365L56.3447 5.45115Z" stroke="#70745A" stroke-width="0.5" stroke-miterlimit="10" stroke-linecap="round" stroke-linejoin="round"/>
<path d="M144.032 45.5467L144.039 51.8966L156.275 44.6643L156.308 52.8245L161.526 49.7399L161.486 35.2296L144.032 45.5467Z" fill="#B4EB38" stroke="#B4EB38" stroke-width="0.5" stroke-miterlimit="10" stroke-linecap="round" stroke-linejoin="round"/>
<path d="M144.038 51.8966L156.273 44.6643L156.307 52.8245" stroke="#70745A" stroke-width="0.5" stroke-miterlimit="10" stroke-linecap="round" stroke-linejoin="round"/>
<path d="M161.486 35.2297L152.744 30.0286L135.29 40.3456L144.032 45.5468L161.486 35.2297Z" stroke="#70745A" stroke-width="0.5" stroke-miterlimit="10" stroke-linecap="round" stroke-linejoin="round"/>
<path d="M120.029 31.1257L120.036 37.4758L133.064 29.7751L133.097 37.9354L138.316 34.8506L138.276 20.3403L120.029 31.1257Z" fill="#B4EB38" stroke="#B4EB38" stroke-width="0.5" stroke-miterlimit="10" stroke-linecap="round" stroke-linejoin="round"/>
<path d="M120.035 37.4759L133.063 29.7751L133.096 37.9355" stroke="#70745A" stroke-width="0.5" stroke-miterlimit="10" stroke-linecap="round" stroke-linejoin="round"/>
<path d="M138.275 20.3404L129.534 15.1393L111.287 25.9247L120.029 31.1258L138.275 20.3404Z" stroke="#70745A" stroke-width="0.5" stroke-miterlimit="10" stroke-linecap="round" stroke-linejoin="round"/>
<path d="M96.4229 16.2367L96.43 22.5868L109.458 14.8862L109.491 23.0464L114.709 19.9616L114.669 5.45129L96.4229 16.2367Z" fill="#B4EB38" stroke="#B4EB38" stroke-width="0.5" stroke-miterlimit="10" stroke-linecap="round" stroke-linejoin="round"/>
<path d="M96.4297 22.5868L109.457 14.8862L109.49 23.0464" stroke="#70745A" stroke-width="0.5" stroke-miterlimit="10" stroke-linecap="round" stroke-linejoin="round"/>
<path d="M114.669 5.45115L105.927 0.25L87.6807 11.0354L96.4226 16.2365L114.669 5.45115Z" stroke="#70745A" stroke-width="0.5" stroke-miterlimit="10" stroke-linecap="round" stroke-linejoin="round"/>
<path d="M26.9764 51.8966L14.741 44.6643L14.708 52.8245" stroke="#70745A" stroke-width="0.5" stroke-miterlimit="10" stroke-linecap="round" stroke-linejoin="round"/>
<path d="M154.477 77.3801L140.018 85.9953" stroke="#70745A" stroke-width="0.5" stroke-miterlimit="10" stroke-linecap="round" stroke-linejoin="round"/>
<path d="M104.771 106.961L85.932 118.168L85.9856 97.7204L10.8633 53.3046L85.5209 8.87109L160.643 53.2867L160.59 70.642" stroke="#70745A" stroke-width="0.5" stroke-miterlimit="10" stroke-linecap="round" stroke-linejoin="round"/>
<path d="M131.259 91.1965L113.511 101.76" stroke="#70745A" stroke-width="0.5" stroke-miterlimit="10" stroke-linecap="round" stroke-linejoin="round"/>
<path d="M85.5209 8.87109L10.8633 53.3046L85.9857 97.7202L160.643 53.2867L85.5209 8.87109ZM85.8605 70.8565L44.5548 46.4412L85.6103 22.0081L126.916 46.4233L85.8605 70.8565Z" fill="#D6DACE" stroke="#D6DACE" stroke-width="0.5" stroke-miterlimit="10" stroke-linecap="round" stroke-linejoin="round"/>
<path d="M58.2991 101.849L40.4971 91.3217" stroke="#70745A" stroke-width="0.5" stroke-miterlimit="10" stroke-linecap="round" stroke-linejoin="round"/>
<path d="M10.792 70.9638L10.8456 53.3046L85.9858 97.7025L85.9144 118.168L67.0757 107.032" stroke="#70745A" stroke-width="0.5" stroke-miterlimit="10" stroke-linecap="round" stroke-linejoin="round"/>
<path d="M31.7223 86.1206L17.209 77.5411" stroke="#70745A" stroke-width="0.5" stroke-miterlimit="10" stroke-linecap="round" stroke-linejoin="round"/>
<path d="M126.916 46.4235L126.881 52.7149L85.8252 77.1481L85.861 70.8566L126.916 46.4235Z" fill="#D6DACE" stroke="#70745A" stroke-width="0.5" stroke-miterlimit="10" stroke-linecap="round" stroke-linejoin="round"/>
<path d="M126.915 46.4235L85.8594 70.8566L44.5537 46.4413L85.6092 22.0082L126.915 46.4235Z" stroke="#70745A" stroke-width="0.5" stroke-miterlimit="10" stroke-linecap="round" stroke-linejoin="round"/>
<path d="M85.8607 70.85L85.8296 77.1478L44.5176 52.7283L44.5488 46.4305L85.8607 70.85Z" fill="#D6DACE" stroke="#70745A" stroke-width="0.5" stroke-miterlimit="10" stroke-linecap="round" stroke-linejoin="round"/>
<path d="M79.2631 107.427L66.4172 114.996L66.4661 121.924L60.3625 125.523L60.3379 111.016L79.2631 99.8223V107.427Z" fill="#B4EB38" stroke="#B4EB38" stroke-width="0.5" stroke-miterlimit="10" stroke-linecap="round" stroke-linejoin="round"/>
<path d="M60.367 125.531L51.6251 120.33L51.585 105.819L60.3269 111.02L60.367 125.531Z" stroke="#70745A" stroke-width="0.5" stroke-miterlimit="10" stroke-linecap="round" stroke-linejoin="round"/>
<path d="M60.3269 111.02L51.585 105.819L70.5118 94.6315L79.2536 99.8326L60.3269 111.02Z" stroke="#70745A" stroke-width="0.5" stroke-miterlimit="10" stroke-linecap="round" stroke-linejoin="round"/>
<path d="M51.3921 92.5004L38.5463 100.095L38.5708 106.972L32.4914 110.596L32.4424 96.0642L51.3921 84.8705V92.5004Z" fill="#B4EB38" stroke="#B4EB38" stroke-width="0.5" stroke-miterlimit="10" stroke-linecap="round" stroke-linejoin="round"/>
<path d="M32.4862 110.584L23.7443 105.383L23.7041 90.8729L32.4459 96.0743L32.4862 110.584Z" stroke="#70745A" stroke-width="0.5" stroke-miterlimit="10" stroke-linecap="round" stroke-linejoin="round"/>
<path d="M32.4459 96.0744L23.7041 90.873L42.6508 79.6738L51.3926 84.875L32.4459 96.0744Z" stroke="#70745A" stroke-width="0.5" stroke-miterlimit="10" stroke-linecap="round" stroke-linejoin="round"/>
<path d="M27.918 71.2206L27.9252 78.8488L15.0934 86.4183L15.1264 93.3004L9.03138 96.9183L8.99121 82.408L27.918 71.2206Z" fill="#B4EB38" stroke="#B4EB38" stroke-width="0.5" stroke-miterlimit="10" stroke-linecap="round" stroke-linejoin="round"/>
<path d="M9.03201 96.9182L0.290171 91.7171L0.25 77.2068L8.99184 82.4079L9.03201 96.9182Z" stroke="#70745A" stroke-width="0.5" stroke-miterlimit="10" stroke-linecap="round" stroke-linejoin="round"/>
<path d="M8.99184 82.408L0.25 77.2068L19.1768 66.0194L27.9187 71.2206L8.99184 82.408Z" stroke="#70745A" stroke-width="0.5" stroke-miterlimit="10" stroke-linecap="round" stroke-linejoin="round"/>
<path d="M92.6973 107.427L105.543 114.996L105.494 121.924L111.598 125.523L111.622 111.016L92.6973 99.8223V107.427Z" fill="#101700" stroke="#101700" stroke-width="0.5" stroke-miterlimit="10" stroke-linecap="round" stroke-linejoin="round"/>
<path d="M111.594 125.531L120.336 120.33L120.376 105.819L111.634 111.02L111.594 125.531Z" stroke="#70745A" stroke-width="0.5" stroke-miterlimit="10" stroke-linecap="round" stroke-linejoin="round"/>
<path d="M111.633 111.02L120.375 105.819L101.448 94.6315L92.7061 99.8326L111.633 111.02Z" stroke="#70745A" stroke-width="0.5" stroke-miterlimit="10" stroke-linecap="round" stroke-linejoin="round"/>
<path d="M120.567 92.5004L133.413 100.095L133.389 106.972L139.468 110.596L139.517 96.0642L120.567 84.8705V92.5004Z" fill="#101700" stroke="#101700" stroke-width="0.5" stroke-miterlimit="10" stroke-linecap="round" stroke-linejoin="round"/>
<path d="M139.474 110.584L148.216 105.383L148.256 90.8729L139.514 96.0743L139.474 110.584Z" stroke="#70745A" stroke-width="0.5" stroke-miterlimit="10" stroke-linecap="round" stroke-linejoin="round"/>
<path d="M139.514 96.0744L148.256 90.873L129.309 79.6738L120.567 84.875L139.514 96.0744Z" stroke="#70745A" stroke-width="0.5" stroke-miterlimit="10" stroke-linecap="round" stroke-linejoin="round"/>
<path d="M144.041 71.2206L144.034 78.8488L156.866 86.4183L156.833 93.3004L162.928 96.9183L162.968 82.408L144.041 71.2206Z" fill="#101700" stroke="#101700" stroke-width="0.5" stroke-miterlimit="10" stroke-linecap="round" stroke-linejoin="round"/>
<path d="M101.52 112.643L105.543 114.997L105.494 121.924" stroke="#70745A" stroke-width="0.5" stroke-miterlimit="10" stroke-linecap="round" stroke-linejoin="round"/>
<path d="M129.39 97.7163L133.413 100.095L133.388 106.972" stroke="#70745A" stroke-width="0.5" stroke-miterlimit="10" stroke-linecap="round" stroke-linejoin="round"/>
<path d="M152.856 84.0649L156.866 86.4183L156.833 93.3004" stroke="#70745A" stroke-width="0.5" stroke-miterlimit="10" stroke-linecap="round" stroke-linejoin="round"/>
<path d="M162.926 96.9182L171.668 91.7171L171.708 77.2068L162.966 82.4079L162.926 96.9182Z" stroke="#70745A" stroke-width="0.5" stroke-miterlimit="10" stroke-linecap="round" stroke-linejoin="round"/>
<path d="M162.968 82.408L171.71 77.2068L152.783 66.0194L144.041 71.2206L162.968 82.408Z" stroke="#70745A" stroke-width="0.5" stroke-miterlimit="10" stroke-linecap="round" stroke-linejoin="round"/>
<path d="M70.411 112.643L66.417 114.997L66.4659 121.924" stroke="#70745A" stroke-width="0.5" stroke-miterlimit="10" stroke-linecap="round" stroke-linejoin="round"/>
<path d="M42.5408 97.7162L38.5469 100.095L38.5714 106.972" stroke="#70745A" stroke-width="0.5" stroke-miterlimit="10" stroke-linecap="round" stroke-linejoin="round"/>
<path d="M19.0747 84.0649L15.0947 86.4183L15.1277 93.3004" stroke="#70745A" stroke-width="0.5" stroke-miterlimit="10" stroke-linecap="round" stroke-linejoin="round"/>
<path d="M148.387 60.5767L160.637 53.2863" stroke="#70745A" stroke-width="0.5" stroke-miterlimit="10" stroke-linecap="round" stroke-linejoin="round"/>
<path d="M85.9805 97.7162L123.309 75.5012" stroke="#70745A" stroke-width="0.5" stroke-miterlimit="10" stroke-linecap="round" stroke-linejoin="round"/>
<path d="M98.7854 47.7639C98.653 47.6823 98.4675 47.6145 98.1892 47.5467L71.7273 41.3063C71.4225 41.2385 71.1708 41.2114 70.9456 41.2249C70.7202 41.252 70.5348 41.3063 70.3758 41.4013C70.2167 41.4962 70.124 41.6047 70.0842 41.7539C70.0445 41.9032 70.0842 42.0796 70.2035 42.283L80.8042 57.9521C80.9101 58.1014 81.0294 58.2235 81.1884 58.3184C81.3209 58.3999 81.4667 58.4405 81.6257 58.4405C81.639 58.4405 81.6654 58.4405 81.6787 58.4269C81.851 58.4269 82.0365 58.3591 82.2352 58.237C82.3545 58.1692 82.434 58.0607 82.5002 57.8978C82.54 57.7487 82.487 57.5858 82.3412 57.3959L79.4923 53.2175L90.1989 46.8549L97.3412 48.5507C97.5664 48.605 97.8182 48.632 98.0566 48.6185C98.3084 48.6185 98.5205 48.5507 98.7192 48.4421C98.9312 48.3065 99.0372 48.198 99.0372 48.0759C99.024 47.9945 98.971 47.8725 98.7854 47.7639ZM78.8166 52.173L72.2574 42.5815L88.4631 46.4344L78.8166 52.173Z" fill="#70745A" stroke="#70745A" stroke-width="0.5" stroke-miterlimit="10" stroke-linecap="round" stroke-linejoin="round"/>
<path d="M103.927 45.0775C103.954 45.2403 103.848 45.3762 103.622 45.5118C103.437 45.6203 103.238 45.6881 103.026 45.6881H102.986C102.774 45.6744 102.562 45.6203 102.364 45.498L83.574 34.3874C83.3488 34.2518 83.2295 34.1159 83.2295 33.9668C83.2295 33.8312 83.3355 33.6954 83.5475 33.5733C83.9318 33.3291 84.3823 33.3291 84.8063 33.5733L103.596 44.6842C103.795 44.8062 103.914 44.9419 103.927 45.0775Z" fill="#70745A" stroke="#70745A" stroke-width="0.5" stroke-miterlimit="10" stroke-linecap="round" stroke-linejoin="round"/>
</svg>
