<svg width="144" height="156" viewBox="0 0 144 156" fill="none" xmlns="http://www.w3.org/2000/svg">
<path d="M135.831 69.2826L135.814 76.0775C135.814 74.0573 134.478 72.0206 131.807 70.4846C126.532 67.4293 117.984 67.4293 112.691 70.4345L112.708 63.6395C118 60.6178 126.548 60.6343 131.841 63.6897C134.512 65.2256 135.831 67.2457 135.831 69.2826Z" fill="#101700" stroke="#101700" stroke-width="0.5" stroke-linecap="round" stroke-linejoin="round"/>
<path d="M112.706 63.6395L112.69 70.4345H112.523L107.598 67.5963L107.631 60.8014L112.539 63.6395H112.706Z" fill="#B4EB38" stroke="#B4EB38" stroke-width="0.5" stroke-linecap="round" stroke-linejoin="round"/>
<path d="M110.486 79.1326L110.453 85.9276L110.302 85.9442L98.5322 92.7725L98.549 85.9778L110.319 79.1326H110.486Z" fill="#101700" stroke="#70745A" stroke-width="0.5" stroke-linecap="round" stroke-linejoin="round"/>
<path d="M142.942 69.2991L142.925 76.0941C142.925 79.166 140.955 82.2213 137.032 84.5251C129.853 88.7323 118.584 89.1999 110.453 85.9276L110.487 79.1326C118.6 82.3883 129.87 81.9208 137.048 77.7135C140.972 75.4263 142.942 72.3544 142.942 69.2991Z" fill="#101700" stroke="#70745A" stroke-width="0.5" stroke-linecap="round" stroke-linejoin="round"/>
<path d="M93.4512 83.1467V83.0338" stroke="#70745A" stroke-width="0.5" stroke-miterlimit="10" stroke-linecap="round" stroke-linejoin="round"/>
<path d="M93.4517 83.1471L93.4355 86.56C93.4355 86.5924 93.4355 86.6086 93.4355 86.6408" stroke="#70745A" stroke-width="0.5" stroke-miterlimit="10" stroke-linecap="round" stroke-linejoin="round"/>
<path d="M98.369 85.9777L98.3528 92.7873L93.7914 90.1508C93.662 88.9377 93.5488 87.7569 93.4355 86.56L93.4517 83.1471L98.369 85.9777Z" fill="#B4EB38" stroke="#70745A" stroke-width="0.5" stroke-linecap="round" stroke-linejoin="round"/>
<path d="M98.5534 85.972L98.5341 92.7767L98.3535 92.7828L98.3728 85.9782L98.5534 85.972Z" stroke="#70745A" stroke-width="0.5" stroke-miterlimit="10" stroke-linecap="round" stroke-linejoin="round"/>
<path d="M136.895 60.7396C137.086 60.8499 137.274 60.9627 137.459 61.0782C144.933 65.7368 144.752 73.2019 137.054 77.713C129.874 81.9224 118.604 82.3963 110.479 79.1285L110.32 79.1346L98.5541 85.972L98.3734 85.9782L93.4595 83.1412L93.459 83.0303L110.043 73.3928H110.234L112.27 74.5682C117.216 77.4237 125.177 77.9468 130.634 75.4544C137.141 72.4879 137.535 66.9738 131.832 63.6814C126.545 60.629 118.003 60.6168 112.708 63.6322H112.538L107.624 60.7953L107.623 60.6845C115.704 56.049 128.809 56.0711 136.895 60.7396Z" fill="#D6DACE" stroke="#70745A" stroke-width="0.5" stroke-linecap="round" stroke-linejoin="round"/>
<path d="M34.4975 69.1433L34.4782 75.948C34.4829 74.2754 33.5902 72.6095 31.7025 71.2187C31.3497 70.9597 30.9756 70.7166 30.5842 70.4905C25.2712 67.4226 16.6505 67.4198 11.3735 70.4866C8.74952 72.0115 7.43536 74.0108 7.42969 76.0132L7.44896 69.2085C7.45466 67.2062 8.76882 65.2068 11.3928 63.6819C16.6698 60.6152 25.2905 60.6179 30.6035 63.6859C30.9949 63.912 31.369 64.155 31.7218 64.4143C33.6095 65.8049 34.5022 67.4708 34.4975 69.1433Z" fill="#D6DACE" stroke="#D6DACE" stroke-width="0.5" stroke-linecap="round" stroke-linejoin="round"/>
<path d="M0.250028 75.99L0.269304 69.1854C0.260616 72.261 2.27144 75.3412 6.29649 77.695L6.27719 84.4997C2.25216 82.1457 0.241316 79.0655 0.250028 75.99Z" fill="#D6DACE" stroke="#D6DACE" stroke-width="0.5" stroke-linecap="round" stroke-linejoin="round"/>
<path d="M11.3674 74.8586L11.3507 81.6702L6.47572 84.4917H6.27539L6.292 77.697H6.49243L11.3674 74.8586Z" fill="#B4EB38" stroke="#B4EB38" stroke-width="0.5" stroke-linecap="round" stroke-linejoin="round"/>
<path d="M39.6701 89.7626L28.2021 83.1471L28.2183 76.3211L38.3761 82.1926C38.6026 84.8292 39.0069 87.3849 39.6701 89.7626Z" fill="#D6DACE" stroke="#D6DACE" stroke-width="0.5" stroke-linecap="round" stroke-linejoin="round"/>
<path d="M38.1661 76.1433C38.1661 78.1652 38.2308 80.2032 38.3764 82.1927L28.2187 76.3212V76.2243L30.2566 75.0435C35.1576 72.1967 36.031 67.5869 31.7286 64.4165C31.3727 64.1578 31.0007 63.9151 30.5963 63.6887C25.2909 60.6154 16.6698 60.6154 11.3968 63.6887C6.13995 66.7296 6.13995 71.6952 11.3644 74.7523V74.8656L6.49575 77.6962H6.30166C-1.91509 72.8921 -1.73719 65.0473 6.88403 60.4213C14.8905 56.1025 27.7819 56.2321 35.5782 60.6964C36.856 61.4403 37.9236 62.2491 38.8132 63.0902C38.5543 66.956 38.1823 71.4849 38.1661 76.0625L38.1177 76.1109L38.1661 76.1433Z" fill="#101700" stroke="#70745A" stroke-width="0.5" stroke-linecap="round" stroke-linejoin="round"/>
<path d="M92.8519 48.2252C99.4188 41.7715 105.209 34.7192 110.369 27.1818C113.669 22.3453 112.666 15.7784 108.089 12.1391L95.3913 3.27523C91.8167 0.20195 83.6807 8.61284 87.2554 11.6861L98.6424 19.1913L83.7939 34.6385" stroke="#70745A" stroke-width="0.5" stroke-miterlimit="10" stroke-linecap="round" stroke-linejoin="round"/>
<path d="M98.2157 5.24379C94.5363 3.42233 87.6874 10.6355 90.3832 13.7502L87.2503 11.6737C86.2302 10.7994 86.1573 9.48793 86.6856 8.12179C87.5234 5.86298 89.9825 3.47682 92.2958 2.80293C93.4433 2.45681 94.5363 2.52967 95.3924 3.25825L98.2157 5.24379Z" fill="#D6DACE" stroke="#70745A" stroke-width="0.5" stroke-linecap="round" stroke-linejoin="round"/>
<path d="M82.8071 14.0962C82.4998 15.5843 81.9336 17.0239 81.1411 18.3178C80.9955 17.0401 80.85 15.7622 80.7367 14.5005C75.9975 18.237 68.7997 18.4473 63.8502 15.002C65.7264 19.2075 66.0337 23.6556 63.8178 27.8772C63.2193 27.295 62.912 26.47 62.5562 25.726C62.2003 24.9657 61.7151 24.1893 60.9549 23.8659C60.1947 23.5423 59.2727 23.7525 58.6419 24.2864C57.8655 24.9495 57.5743 25.8716 57.6067 26.8096C57.3156 26.5993 57.0245 26.3569 56.7656 26.0818C52.7381 21.6499 50.2795 13.1419 54.3232 7.96579C55.6011 6.3323 57.6552 5.21613 59.7418 5.37784C60.0006 4.40738 60.9711 3.64721 61.8121 3.08112C64.5457 1.28573 68.088 0.94592 71.2745 1.6901C72.342 1.93257 73.361 2.28857 74.3638 2.74131C73.6683 4.26186 73.4742 6.47782 74.283 7.25419C75.027 7.9498 76.2078 8.40254 77.146 7.99817C77.6958 7.7557 78.0517 7.25419 78.5208 6.84981C78.8605 6.54258 79.556 6.3323 80.0897 6.41306C80.3162 6.60715 80.5426 6.78505 80.7529 7.01152C80.7853 7.09248 80.8176 7.17323 80.8338 7.27038C81.1087 8.51588 81.7072 9.16292 82.4351 9.16292C83.1791 10.6833 83.1629 12.4625 82.8071 14.0962Z" fill="#70745A" stroke="#70745A" stroke-width="0.5" stroke-miterlimit="10" stroke-linecap="round" stroke-linejoin="round"/>
<path d="M42.5 54.3719C42.775 53.9675 43.0499 53.5955 43.3411 53.2559C45.0071 51.2986 47.1098 49.762 49.2287 48.2253C51.7843 46.3653 54.3238 44.3597 56.928 42.4671" stroke="#70745A" stroke-width="0.5" stroke-miterlimit="10" stroke-linecap="round" stroke-linejoin="round"/>
<path d="M51.9305 101.845C51.7203 103.107 51.4291 104.53 51.0571 106.277C50.7983 107.474 50.313 109.108 49.8925 110.855C49.0676 114.203 50.4748 117.826 53.548 119.411C61.0531 123.326 76.1604 120.948 86.0918 115.546C86.3667 115.416 86.6256 115.254 86.8682 115.093C92.8043 111.696 96.6378 107.183 95.3761 102.331C94.7292 98.1089 94.1954 94.0814 93.791 90.1508C93.6616 88.9377 93.5484 87.757 93.4351 86.56C92.6911 77.7931 92.5294 69.3013 93.0308 59.6935C93.2896 54.194 93.7748 51.7677 92.4647 46.4461C91.3324 41.707 88.5342 37.1455 84.3288 34.9134C83.7626 34.5899 83.148 34.3473 82.5333 34.137C81.9349 33.9267 81.3202 33.7812 80.6732 33.6841" stroke="#70745A" stroke-width="0.5" stroke-miterlimit="10" stroke-linecap="round" stroke-linejoin="round"/>
<path d="M60.2443 116.516C60.2443 117.131 59.84 117.729 59.0474 118.198C57.446 119.12 54.8257 119.12 53.2082 118.198C52.3995 117.729 51.9951 117.114 51.9951 116.5C51.9951 115.885 52.3995 115.27 53.192 114.818C53.8876 114.413 54.761 114.187 55.6506 114.154C56.8638 114.057 58.1093 114.284 59.0312 114.818C59.1121 114.866 59.1767 114.898 59.2415 114.947H59.2576C59.9208 115.4 60.2605 115.966 60.2443 116.516Z" fill="#D6DACE" stroke="#70745A" stroke-width="0.5" stroke-linecap="round" stroke-linejoin="round"/>
<path d="M53.5313 113.281C54.1783 113.621 54.89 113.912 55.6502 114.154C54.7606 114.187 53.8872 114.413 53.1916 114.818C52.3991 115.271 51.9947 115.885 51.9947 116.5V118.311C50.0376 116.468 49.2289 113.556 49.892 110.855C49.989 110.434 50.1023 109.998 50.2155 109.577C50.8463 111.13 51.9947 112.472 53.5313 113.281Z" fill="#101700" stroke="#70745A" stroke-width="0.5" stroke-linecap="round" stroke-linejoin="round"/>
<path d="M86.8673 115.093C86.6085 115.254 86.3659 115.416 86.0909 115.562C78.5858 119.638 68.1369 121.983 60.2274 121.207L60.2436 116.516C60.2598 115.966 59.9201 115.4 59.2568 114.947C67.2634 116.031 78.2785 113.669 86.0909 109.399C86.3659 109.269 86.6085 109.108 86.8673 108.962C90.9434 106.633 94.0327 103.77 95.1488 100.648C95.2136 101.198 95.2944 101.764 95.3915 102.331C96.637 107.183 92.8035 111.696 86.8673 115.093Z" fill="#101700" stroke="#70745A" stroke-width="0.5" stroke-linecap="round" stroke-linejoin="round"/>
<path d="M73.1508 38.7954C73.1184 40.6556 72.892 42.5157 72.4876 44.3273C71.3231 49.8428 56.5069 47.5947 57.7685 41.2378C59.1595 37.8897 60.0815 34.3635 60.5021 30.7727" stroke="#70745A" stroke-width="0.5" stroke-miterlimit="10" stroke-linecap="round" stroke-linejoin="round"/>
<path d="M59.2313 37.0818C62.2328 40.7713 66.1601 44.4199 72.0604 45.0571C70.4709 48.359 67.9496 51.453 68.0378 54.9328C60.6403 48.4167 52.2733 40.9673 59.2313 37.0818Z" fill="#B4EB38" stroke="#70745A" stroke-width="0.5" stroke-miterlimit="10" stroke-linecap="round" stroke-linejoin="round"/>
<path d="M77.2597 51.1207C75.9495 48.4518 72.7307 47.2548 70.4824 45.5566L72.3588 38.7468C73.1189 38.8278 73.863 38.8278 74.6071 38.7954C74.6394 38.7792 74.7041 38.7954 74.785 38.7792C75.804 38.7306 76.8068 38.5527 77.7288 38.1321C78.0523 38.3424 78.3111 38.6013 78.489 38.9409C80.2683 42.3538 77.2597 51.1207 77.2597 51.1207Z" fill="#B4EB38" stroke="#70745A" stroke-width="0.5" stroke-miterlimit="10" stroke-linecap="round" stroke-linejoin="round"/>
<path d="M80.9491 32.7136C80.755 33.5224 80.4962 34.3149 80.2051 35.0913C79.8007 36.1265 79.2346 37.291 78.2318 37.8735C78.07 37.9705 77.8921 38.0514 77.7304 38.1322C76.8084 38.5527 75.8055 38.7306 74.7865 38.7792C74.7057 38.7954 74.6409 38.7792 74.6086 38.7954C73.8645 38.8278 73.1205 38.8278 72.3603 38.7468C70.1282 38.6013 67.9122 38.0028 65.9712 36.9029C64.7905 36.2236 64.0302 35.4311 63.2377 34.3797C62.8009 33.7974 62.4451 33.1666 62.2348 32.4709C62.154 32.1961 61.7172 30.6594 61.9922 30.4491C60.8438 31.3064 59.4204 30.5138 58.6602 29.5596C58.0617 28.8154 57.6573 27.8126 57.6089 26.8097C57.5765 25.8716 57.8676 24.9496 58.6441 24.2865C59.2748 23.7526 60.1968 23.5423 60.9571 23.866C61.7172 24.1894 62.2025 24.9657 62.5584 25.7261C62.9142 26.4701 63.2215 27.295 63.8199 27.8773C66.0359 23.6557 65.7286 19.2076 63.8523 15.0021C68.8018 18.4474 75.9996 18.2371 80.7389 14.5006C80.8521 15.7623 80.9976 17.0402 81.1432 18.3179C81.677 23.122 82.1622 27.9745 80.9491 32.7136Z" stroke="#70745A" stroke-width="0.5" stroke-miterlimit="10" stroke-linecap="round" stroke-linejoin="round"/>
<path d="M85.6399 65.6183C84.7533 66.138 84.4289 67.3665 83.8294 68.1322C82.9498 69.2934 81.8358 70.4125 80.3452 70.6268C79.8079 70.7028 78.6972 69.1287 79.0685 68.737C79.6815 68.0927 80.4538 67.1789 81.0311 66.305C81.6773 65.3267 80.4587 64.2217 79.4989 64.8806C78.418 65.6092 77.6606 65.9332 77.2931 66.1777C76.5452 66.7139 76.0826 67.0454 75.2313 68.7314C74.7583 69.6743 74.1546 70.4745 73.5289 71.1666L70.8811 72.9059C69.5015 77.8482 71.4658 80.0265 75.1199 80.8078L77.4166 79.4843C77.6809 79.3964 77.9494 79.3303 78.231 79.2728C78.9977 79.1048 79.7558 78.9498 80.492 78.7429C83.9999 77.744 87.39 75.5618 89.0153 72.3074C90.8741 69.7098 87.6171 64.6204 85.6399 65.6183Z" stroke="#70745A" stroke-width="0.5" stroke-miterlimit="10" stroke-linecap="round" stroke-linejoin="round"/>
<path d="M77.0503 79.5562C76.468 80.268 56.5245 104.32 49.7311 101.781C44.2154 99.7265 41.2231 95.246 39.6703 89.7626C39.0071 87.385 38.6028 84.8292 38.3763 82.1927C38.2307 80.2032 38.166 78.1651 38.166 76.1433V76.0625C38.1822 71.4849 38.5542 66.956 38.813 63.0902C38.8777 62.055 38.9263 61.0683 38.9748 60.1462C39.0233 59.095 39.2821 58.0598 39.8159 57.1539C40.7379 55.5526 42.5656 53.466 45.7196 53.6441C54.3894 54.1778 54.8099 61.4241 54.8908 71.6306C54.9231 76.1756 54.5188 79.6695 54.0497 82.1443L72.6184 71.8409C69.8364 73.4584 74.2683 81.1253 77.0503 79.5562Z" stroke="#70745A" stroke-width="0.5" stroke-miterlimit="10" stroke-linecap="round" stroke-linejoin="round"/>
<path d="M77.0527 79.5551C76.9274 79.7117 75.925 80.9179 74.3587 82.719H74.343C71.3513 83.9564 67.0128 76.9863 68.4695 74.1514L72.6044 71.8489C69.8321 73.4465 74.2647 81.1215 77.0527 79.5551Z" fill="#D6DACE" stroke="#70745A" stroke-width="0.5" stroke-linecap="round" stroke-linejoin="round"/>
<path d="M92.301 2.80624C89.9879 3.46947 87.5294 5.86332 86.6883 8.12786C86.2516 8.25718 84.537 7.75586 84.2297 8.09547C83.6151 8.80708 82.9843 9.16308 82.4343 9.16308C81.7064 9.16308 81.108 8.51604 80.833 7.27054C80.8168 7.17339 80.7846 7.09264 80.7522 7.01168C80.7036 6.8014 80.6551 6.6235 80.5581 6.55874C80.4287 6.46179 80.2669 6.41322 80.0889 6.41322C79.5552 6.33246 78.8597 6.54274 78.52 6.84997C78.051 7.25435 77.6951 7.75586 77.1452 7.99833C76.207 8.4027 75.0262 7.94996 74.2822 7.25435C73.4735 6.47798 73.6676 4.26202 74.3631 2.74147C74.6218 2.14301 74.9616 1.65788 75.3497 1.39903C76.7408 0.46095 78.5038 0.266859 80.186 0.250668C84.068 0.218287 88.694 1.36664 92.301 2.80624Z" stroke="#70745A" stroke-width="0.5" stroke-miterlimit="10" stroke-linecap="round" stroke-linejoin="round"/>
<path d="M50.1565 122.917L50.1372 129.722L33.4521 139.366L33.4701 132.561L50.1565 122.917Z" fill="#101700" stroke="#70745A" stroke-width="0.5" stroke-linecap="round" stroke-linejoin="round"/>
<path d="M0.651396 143.459L0.670696 136.654C0.662305 139.614 2.48397 142.58 6.15708 144.87C6.34791 144.989 6.54121 145.105 6.73816 145.218C14.8158 149.882 27.9189 149.895 35.9931 145.263L35.9738 152.068C27.8996 156.7 14.7965 156.687 6.71886 152.023C6.52191 151.909 6.32863 151.793 6.13777 151.674C2.46467 149.385 0.643005 146.419 0.651396 143.459Z" fill="#B4EB38" stroke="#70745A" stroke-width="0.5" stroke-linecap="round" stroke-linejoin="round"/>
<path d="M33.4707 132.561L33.4527 139.373L31.3087 138.188C26.3669 135.333 18.4367 134.815 12.9441 137.303C9.48819 138.872 7.76855 141.176 7.76855 143.464L7.78526 136.669C7.78526 134.365 9.52163 132.077 12.9775 130.491C18.4535 128.004 26.3836 128.538 31.3421 131.393L33.4707 132.561Z" fill="#101700" stroke="#70745A" stroke-width="0.5" stroke-linecap="round" stroke-linejoin="round"/>
<path d="M50.1561 122.819L50.1567 122.917L33.5622 132.561L33.3816 132.567L31.3351 131.385C26.3892 128.53 18.4497 128.007 12.9708 130.5C6.46397 133.466 6.08061 138.974 11.7833 142.266C17.0703 145.319 25.6232 145.337 30.8972 142.322H31.0672L35.9811 145.159L35.9924 145.263C27.9182 149.895 14.8151 149.882 6.73741 145.218C6.54046 145.105 6.34716 144.989 6.15633 144.87C-1.3178 140.211 -1.12598 132.752 6.55142 128.241C13.7312 124.031 25.0012 123.557 33.1368 126.819L33.2961 126.813L45.0616 119.976L45.2422 119.982L50.1561 122.819Z" fill="#D6DACE" stroke="#70745A" stroke-width="0.5" stroke-linecap="round" stroke-linejoin="round"/>
<path d="M60.2439 116.516L60.2277 121.207V123.326C60.2277 123.924 59.8234 124.539 59.0308 125.008C57.4295 125.93 54.8091 125.93 53.1916 124.992C52.3829 124.523 51.9785 123.908 51.9785 123.293L51.9947 118.311V116.5C51.9947 117.115 52.3991 117.729 53.2078 118.198C54.8253 119.12 57.4456 119.12 59.047 118.198C59.8396 117.729 60.2439 117.131 60.2439 116.516Z" fill="#B4EB38" stroke="#70745A" stroke-width="0.5" stroke-linecap="round" stroke-linejoin="round"/>
<path d="M91.7179 116.518L91.6986 123.323C91.6969 123.93 91.2992 124.534 90.5061 124.995C88.8964 125.931 86.2828 125.931 84.6626 124.995C83.854 124.528 83.4494 123.914 83.4512 123.3L83.4705 116.495C83.4687 117.109 83.8733 117.724 84.6819 118.191C86.3021 119.126 88.9157 119.126 90.5254 118.191C91.3185 117.73 91.7161 117.125 91.7179 116.518Z" fill="#D6DACE" stroke="#70745A" stroke-width="0.5" stroke-linecap="round" stroke-linejoin="round"/>
<path d="M90.496 114.812C92.1163 115.747 92.1248 117.261 90.5257 118.191C88.916 119.126 86.3023 119.126 84.6821 118.191C83.0726 117.261 83.064 115.748 84.6738 114.812C86.2728 113.883 88.8865 113.883 90.496 114.812Z" fill="#101700" stroke="#70745A" stroke-width="0.5" stroke-linecap="round" stroke-linejoin="round"/>
<path d="M93.6332 122.917L93.6139 129.722L93.6133 129.623L93.6326 122.819L93.6332 122.917Z" stroke="#70745A" stroke-width="0.5" stroke-miterlimit="10" stroke-linecap="round" stroke-linejoin="round"/>
<path d="M115.397 129.619L115.378 136.424L115.368 136.528L115.387 129.724L115.397 129.619Z" stroke="#70745A" stroke-width="0.5" stroke-miterlimit="10" stroke-linecap="round" stroke-linejoin="round"/>
<path d="M105.475 129.754L105.456 136.559L93.6133 129.722L93.6326 122.917L105.475 129.754Z" stroke="#70745A" stroke-width="0.5" stroke-miterlimit="10" stroke-linecap="round" stroke-linejoin="round"/>
<path d="M105.487 129.847L105.468 136.651L105.457 136.559L105.476 129.754L105.487 129.847Z" stroke="#70745A" stroke-width="0.5" stroke-miterlimit="10" stroke-linecap="round" stroke-linejoin="round"/>
<path d="M132.257 131.194L132.238 137.999L132.227 137.894L132.246 131.09L132.257 131.194Z" stroke="#70745A" stroke-width="0.5" stroke-miterlimit="10" stroke-linecap="round" stroke-linejoin="round"/>
<path d="M136.162 136.742L136.143 143.546C136.149 141.542 134.847 139.535 132.239 137.999L132.259 131.194C134.866 132.73 136.168 134.738 136.162 136.742Z" stroke="#70745A" stroke-width="0.5" stroke-miterlimit="10" stroke-linecap="round" stroke-linejoin="round"/>
<path d="M115.386 129.723L115.369 136.535L113.332 137.704C110.578 139.306 109.092 141.46 109.092 143.614L109.109 136.802C109.125 134.665 110.594 132.512 113.349 130.909L115.386 129.723Z" stroke="#70745A" stroke-width="0.5" stroke-miterlimit="10" stroke-linecap="round" stroke-linejoin="round"/>
<path d="M143.341 136.763L143.322 143.568C143.313 146.774 141.109 149.976 136.708 152.344C128.7 156.652 115.811 156.523 108.009 152.055C103.874 149.668 101.815 146.545 101.824 143.434L101.844 136.629C101.835 139.741 103.894 142.863 108.028 145.251C115.831 149.718 128.719 149.848 136.727 145.54C141.128 143.171 143.332 139.969 143.341 136.763Z" fill="#D6DACE" stroke="#D6DACE" stroke-width="0.5" stroke-linecap="round" stroke-linejoin="round"/>
<path d="M137.309 128.259C145.539 133.059 145.349 140.899 136.727 145.54C128.719 149.848 115.83 149.718 108.028 145.251C100.732 141.038 99.8992 134.534 105.487 129.847L105.476 129.754L93.6334 122.917L93.6328 122.819L98.5148 119.981L98.6954 119.975L115.398 129.619L115.388 129.724L113.355 130.905C108.452 133.755 107.575 138.364 111.896 141.533C112.253 141.797 112.632 142.044 113.029 142.273C118.343 145.341 126.943 145.335 132.225 142.266C137.467 139.219 137.471 134.265 132.258 131.194L132.247 131.09L137.129 128.253L137.309 128.259Z" fill="#101700" stroke="#70745A" stroke-width="0.5" stroke-linecap="round" stroke-linejoin="round"/>
</svg>
