<svg width="141" height="156" viewBox="0 0 141 156" fill="none" xmlns="http://www.w3.org/2000/svg">
<path d="M88.4978 135.039V141.768C88.1743 145.197 86.1361 148.578 82.3187 151.215C73.9558 156.973 60.336 156.973 51.9084 151.198C48.0748 148.578 46.0044 145.197 45.6484 141.768V135.168C45.9882 138.581 48.0425 141.914 51.8275 144.518C60.1904 150.293 73.7941 150.293 82.2216 144.518C86.0715 141.865 88.1743 138.485 88.4978 135.039Z" fill="#D6DACE" stroke="#70745A" stroke-width="0.5" stroke-linecap="round" stroke-linejoin="round"/>
<path d="M43.1907 116.194V122.341C42.8671 125.786 40.8128 129.167 36.9954 131.788C28.6326 137.562 15.0288 137.562 6.60135 131.788C2.76773 129.151 0.681012 125.786 0.325195 122.341V116.275C0.729586 119.656 2.8324 122.972 6.60135 125.544C15.0288 131.302 28.6326 131.302 36.9954 125.544C40.7805 122.939 42.8347 119.607 43.1907 116.194Z" fill="#D6DACE" stroke="#70745A" stroke-width="0.5" stroke-linecap="round" stroke-linejoin="round"/>
<path d="M33.0303 107.459C26.7703 103.496 16.612 103.496 10.4005 107.476C7.26247 109.465 5.54785 112.167 5.54785 115.062C5.56404 117.974 7.29485 120.691 10.4652 122.697C13.6033 124.687 17.712 125.673 21.8044 125.673C25.8968 125.673 29.9892 124.687 33.095 122.697C36.233 120.691 37.9477 118.006 37.9477 115.11C37.9477 112.183 36.2007 109.481 33.0303 107.459ZM27.4012 119.3C25.816 120.384 23.794 120.934 21.7721 120.934C19.7501 120.934 17.712 120.384 16.1267 119.3C14.5253 118.2 13.6195 116.696 13.6195 115.078C13.6195 113.46 14.5091 111.956 16.0944 110.856C19.2486 108.689 24.1984 108.689 27.3688 110.856C28.9863 111.972 29.876 113.477 29.876 115.094C29.876 116.712 29.0025 118.2 27.4012 119.3Z" fill="#101700"/>
<path d="M78.4191 126.433C75.3134 124.444 71.2372 123.457 67.1448 123.457C63.0361 123.457 58.9275 124.46 55.7894 126.45C52.619 128.455 50.8883 131.157 50.8721 134.068C50.8721 136.964 52.5867 139.665 55.7248 141.671C58.8305 143.661 62.9228 144.647 67.0315 144.647C71.1239 144.647 75.2164 143.661 78.3545 141.671C81.5248 139.649 83.2718 136.948 83.2718 134.036C83.2718 131.141 81.5572 128.439 78.4191 126.433ZM72.6768 138.274C71.1078 139.358 69.0697 139.908 67.0477 139.908C65.0258 139.908 63.0038 139.358 61.4185 138.274C59.8333 137.174 58.9437 135.67 58.9437 134.068C58.9437 132.435 59.8495 130.93 61.4509 129.83C63.0361 128.747 65.058 128.197 67.0962 128.197C69.1181 128.197 71.1401 128.747 72.7254 129.83C74.3268 130.93 75.2002 132.435 75.2002 134.036C75.2002 135.67 74.2944 137.174 72.6768 138.274Z" fill="#101700"/>
<path d="M0.323772 116.275C-0.177669 112.118 1.87663 107.815 6.50287 104.629C9.31744 102.687 12.7467 101.393 16.37 100.762" stroke="#70745A" stroke-width="0.5" stroke-linecap="round" stroke-linejoin="round"/>
<path d="M39.0479 106.343C42.1698 109.255 43.5447 112.765 43.1888 116.194" stroke="#70745A" stroke-width="0.5" stroke-linecap="round" stroke-linejoin="round"/>
<path d="M34.5498 109.671C38.5431 113.479 37.924 118.664 32.6615 122.023C26.687 125.83 16.9358 125.83 10.8994 122.007C4.87844 118.184 4.84748 111.977 10.8375 108.154C11.8435 107.504 12.9425 106.978 14.1343 106.56" stroke="#70745A" stroke-width="0.5" stroke-linecap="round" stroke-linejoin="round"/>
<path d="M14.428 115.011C14.4125 116.265 15.0781 117.534 16.4401 118.509C16.4866 118.555 16.533 118.602 16.5949 118.633C19.4584 120.614 24.1018 120.614 26.9342 118.633" stroke="#70745A" stroke-width="0.5" stroke-linecap="round" stroke-linejoin="round"/>
<path d="M88.5132 134.877C88.5132 134.926 88.4971 134.99 88.4971 135.038" stroke="#70745A" stroke-width="0.5" stroke-linecap="round" stroke-linejoin="round"/>
<path d="M45.6481 135.168C45.1952 131.028 47.298 126.773 51.9081 123.603C54.9168 121.549 58.5886 120.222 62.4384 119.64" stroke="#70745A" stroke-width="0.5" stroke-linecap="round" stroke-linejoin="round"/>
<path d="M64.3138 124.422C61.3575 124.762 58.525 125.66 56.2343 127.115C50.1979 130.953 50.1824 137.145 56.1569 140.983C62.1469 144.807 71.898 144.807 77.919 140.983C80.1478 139.575 81.5408 137.841 82.1135 136.015" stroke="#70745A" stroke-width="0.5" stroke-linecap="round" stroke-linejoin="round"/>
<path d="M73.9139 125.259H73.8994" stroke="#70745A" stroke-width="0.5" stroke-linecap="round" stroke-linejoin="round"/>
<path d="M69.0341 129.205C66.5886 128.74 63.849 129.174 61.9142 130.505C59.0662 132.47 59.0353 135.643 61.8832 137.609C64.7312 139.559 69.3591 139.559 72.238 137.609C73.6001 136.665 74.3276 135.427 74.374 134.173" stroke="#70745A" stroke-width="0.5" stroke-linecap="round" stroke-linejoin="round"/>
<path d="M85.9899 128.504C85.9737 128.569 85.9576 128.633 85.9414 128.682H85.9252C85.9252 128.698 85.9252 128.698 85.9252 128.714C85.9091 128.763 85.8767 128.827 85.8606 128.876C85.812 128.941 85.7635 128.989 85.7473 129.022C85.6826 129.102 85.6179 129.135 85.5532 129.183C85.3752 129.313 85.1649 129.394 84.9224 129.442C84.3885 129.572 83.8547 129.669 83.3372 129.75C80.4579 130.105 77.7242 129.523 75.5081 127.356C75.314 127.177 75.1199 126.967 74.942 126.757C74.5699 126.336 74.2464 125.867 73.9391 125.414C73.7773 125.172 73.6479 124.929 73.5186 124.67C73.3083 124.282 73.1142 123.781 72.9201 123.392C72.1759 121.742 71.5451 122.373 70.9952 122.276C70.3319 122.163 69.0864 120.465 69.0541 120.416C68.7467 120.06 68.5688 119.591 68.6173 119.122L69.7334 113.638C68.8922 116.421 77.7728 119.122 78.6138 116.34L78.6947 115.935C78.8889 116.793 79.2285 117.634 79.6491 118.41C80.4903 119.963 81.6549 121.322 82.7548 122.665C83.8871 124.039 84.987 125.447 85.6988 127.064C85.8929 127.501 86.0709 128.019 85.9899 128.504Z" fill="#70745A" stroke="#70745A" stroke-width="0.5" stroke-miterlimit="10" stroke-linecap="round" stroke-linejoin="round"/>
<path d="M61.4678 73.652L73.1466 93.7098L69.7335 113.639C68.8924 116.421 77.7728 119.122 78.614 116.34L78.6948 115.935V115.919L83.127 94.0335C83.4505 92.4321 83.3049 90.7659 82.7226 89.2293L72.2893 62.0863" stroke="#70745A" stroke-width="0.5" stroke-miterlimit="10" stroke-linecap="round" stroke-linejoin="round"/>
<path d="M33.3882 102.623C29.6677 105.243 26.6268 108.802 24.6209 112.894C24.1033 113.962 23.6504 115.11 22.2269 114.965C20.4153 114.771 20.0109 112.409 19.9138 110.921C19.8168 109.465 20.0756 108.009 20.5285 106.618C21.0462 105.033 21.8226 103.545 22.7122 102.154C22.8578 101.943 24.071 100.568 24.0224 100.358C23.4563 98.3199 23.9254 96.7023 24.4268 95.6994C24.7665 95.004 25.4783 94.5672 26.2547 94.551L30.7838 94.47C29.5707 96.4434 30.8648 103.059 32.8544 102.752C32.8544 102.752 33.0323 102.704 33.3882 102.623Z" fill="#70745A" stroke="#70745A" stroke-width="0.5" stroke-miterlimit="10" stroke-linecap="round" stroke-linejoin="round"/>
<path d="M62.5353 68.6052L61.4677 73.652L57.2459 93.5643C56.7768 95.7966 55.0298 97.5597 52.7976 98.0774C42.9628 100.31 35.3926 102.138 33.3868 102.623C33.0309 102.704 32.853 102.752 32.853 102.752C30.8634 103.059 29.5694 96.4437 30.7825 94.4703C30.9605 94.179 31.2031 93.9849 31.4943 93.9363L47.2655 87.5146C47.0067 80.2679 46.6994 72.8916 47.1038 67.6345" stroke="#70745A" stroke-width="0.5" stroke-miterlimit="10" stroke-linecap="round" stroke-linejoin="round"/>
<path d="M80.0164 41.7897C80.0468 40.2503 80.5004 38.8645 81.2275 37.6745L77.8533 36.8518C77.9342 35.3798 77.546 30.9476 77.174 28.3272C76.349 22.4392 75.5402 18.3144 70.5095 18.6865C69.911 18.7188 69.07 18.7996 68.1964 18.9291C68.1802 19.0099 68.1479 19.107 68.1156 19.188C68.0509 19.3659 67.9861 19.56 67.9053 19.7379C68.2612 19.8349 68.617 19.9482 68.9567 20.1099C69.2964 20.2555 69.6361 20.4496 69.9434 20.6599C72.2403 22.1967 73.5991 24.9951 73.9873 27.8096C74.4241 30.9638 74.0035 32.3227 73.5345 35.4931C73.1139 38.2429 72.7904 40.8472 72.5963 43.4031C73.4212 43.953 74.3917 44.3736 75.524 44.6325C76.6273 44.8848 78.4149 45.027 80.4603 45.0833C80.1563 44.032 79.9938 42.9328 80.0164 41.7897Z" fill="#D6DACE" stroke="#70745A" stroke-width="0.5" stroke-linecap="round" stroke-linejoin="round"/>
<path d="M70.2843 8.5281C70.0092 9.36928 69.6048 10.1619 69.0711 10.8737C69.0549 10.1295 69.0549 9.38547 69.0549 8.64144C66.0948 10.5339 61.9214 10.2266 59.2687 7.9458C60.0936 10.5017 60.0289 13.0898 58.4922 15.4028C58.1848 15.0308 58.0555 14.5295 57.8937 14.0765C57.732 13.6073 57.4893 13.1382 57.0687 12.9119C56.6482 12.6854 56.0982 12.75 55.71 13.025C55.2086 13.3646 54.9983 13.8824 54.9821 14.4323C54.8204 14.303 54.6586 14.1251 54.513 13.947C52.4425 11.1486 51.5205 6.08554 54.1571 3.33574C54.9983 2.46218 56.2438 1.92845 57.4408 2.15493C57.6511 1.60501 58.2496 1.21661 58.7672 0.94175C60.4657 0.0681932 62.5199 0.0681933 64.3317 0.682881C66.1433 1.29757 67.7123 2.47837 69.0549 3.82109C69.5726 4.35482 70.074 4.92093 70.3328 5.60039C70.6887 6.53851 70.5754 7.58998 70.2843 8.5281Z" fill="#70745A" stroke="#70745A" stroke-width="0.5" stroke-miterlimit="10" stroke-linecap="round" stroke-linejoin="round"/>
<path d="M44.6133 29.4758C44.7912 29.2655 44.9691 29.0552 45.1632 28.8773C46.247 27.842 47.5572 27.0818 48.8675 26.3216C50.4527 25.3995 52.0379 24.3804 53.6555 23.4423" stroke="#70745A" stroke-width="0.5" stroke-miterlimit="10" stroke-linecap="round" stroke-linejoin="round"/>
<path d="M72.419 60.2908C72.8557 63.1699 70.3808 65.5641 66.7413 67.1817C66.5957 67.2624 66.434 67.3434 66.256 67.392C60.2063 69.9477 51.3421 70.4328 47.2173 67.7316C45.535 66.6478 44.9365 64.4641 45.5997 62.5714C45.9556 61.6009 46.3276 60.679 46.5379 59.9995C47.0394 58.4467 47.3791 57.3305 47.6055 56.3276" stroke="#70745A" stroke-width="0.5" stroke-miterlimit="10" stroke-linecap="round" stroke-linejoin="round"/>
<path d="M67.9062 19.7379C68.2621 19.8351 68.618 19.9482 68.9577 20.11C69.2973 20.2557 69.637 20.4498 69.9444 20.6601C72.2413 22.1967 73.6001 24.9951 73.9883 27.8096C74.425 30.964 74.0045 32.3228 73.5354 35.4932C73.1148 38.2432 72.7913 40.8474 72.5972 43.4031" stroke="#70745A" stroke-width="0.5" stroke-miterlimit="10" stroke-linecap="round" stroke-linejoin="round"/>
<path d="M63.2469 22.2615C63.1336 23.3289 62.891 24.3966 62.5513 25.4157C61.5484 28.5377 53.1209 26.37 54.2209 22.7628C55.1752 20.9835 55.9031 19.0587 56.356 17.0689" stroke="#70745A" stroke-width="0.5" stroke-miterlimit="10" stroke-linecap="round" stroke-linejoin="round"/>
<path d="M55.3019 20.4533C56.8231 22.762 58.882 25.1007 62.2574 25.813C61.1458 27.63 59.5074 29.2726 59.3559 31.2903C55.4569 27.0909 51.0515 22.2954 55.3019 20.4533Z" fill="#B4EB38" stroke="#70745A" stroke-width="0.5" stroke-miterlimit="10" stroke-linecap="round" stroke-linejoin="round"/>
<path d="M65.9495 22.1319C66.1274 22.2615 66.2568 22.4394 66.3377 22.6497C67.1627 24.7362 64.9142 29.6213 64.9142 29.6213C64.3157 28.0038 62.5202 27.1304 61.3232 25.998L62.7952 22.1967" fill="#B4EB38"/>
<path d="M65.9495 22.1319C66.1274 22.2615 66.2568 22.4394 66.3377 22.6497C67.1627 24.7362 64.9142 29.6213 64.9142 29.6213C64.3157 28.0038 62.5202 27.1304 61.3232 25.998L62.7952 22.1967" stroke="#70745A" stroke-width="0.5" stroke-miterlimit="10" stroke-linecap="round" stroke-linejoin="round"/>
<path d="M69.0706 10.8736C69.0868 13.5911 69.0868 16.3411 68.197 18.9292C68.1808 19.0099 68.1485 19.1071 68.1162 19.188C68.0515 19.3659 67.9867 19.56 67.9059 19.7379C67.7926 20.0128 67.6794 20.2717 67.55 20.5305C67.2589 21.0967 66.8545 21.7437 66.256 22.0188C65.609 22.3098 64.8972 22.3746 64.2017 22.3422C64.1531 22.3422 64.1208 22.326 64.0884 22.3422C62.3738 22.2451 60.6106 21.7437 59.2034 20.7408C58.5726 20.2879 58.1682 19.7865 57.7799 19.1233C57.5535 18.7674 57.3917 18.3792 57.3108 17.9586C57.2785 17.7967 55.7903 16.6645 55.4183 16.066C55.111 15.5968 54.9331 14.9984 54.9815 14.4322C54.9977 13.8823 55.208 13.3646 55.7095 13.025C56.0977 12.7499 56.6477 12.6853 57.0682 12.9118C57.4887 13.1381 57.7314 13.6073 57.8931 14.0764C58.055 14.5294 58.1843 15.0307 58.4916 15.4027C60.0283 13.0897 60.093 10.5016 59.2681 7.94573C61.9209 10.2266 66.0942 10.5338 69.0544 8.64137C69.0544 9.3854 69.0544 10.1294 69.0706 10.8736Z" stroke="#70745A" stroke-width="0.5" stroke-miterlimit="10" stroke-linecap="round" stroke-linejoin="round"/>
<path d="M65.876 42.1949L90.6288 27.7557L106.507 36.7547L81.0649 51.1937L65.876 42.1949Z" fill="#D6DACE" stroke="#D6DACE" stroke-width="0.5" stroke-linecap="round" stroke-linejoin="round"/>
<path d="M81.0654 51.1937L106.508 36.7547L106.449 51.7789L81.0654 66.2181L81.0654 51.1937Z" stroke="#70745A" stroke-width="0.5" stroke-miterlimit="10" stroke-linecap="round" stroke-linejoin="round"/>
<path d="M81.0572 51.1998V66.211L67.4049 58.1555C67.4535 58.1716 67.5182 58.1716 67.5667 58.1878C69.6534 58.5599 71.9827 58.2848 73.6487 56.9908C75.2825 56.1011 74.8781 52.6071 73.584 52.6395C72.9855 52.688 72.5165 53.238 71.9989 53.4968C71.2385 53.8688 70.3813 54.1763 69.5401 53.9174C69.249 53.8203 69.0711 52.7042 69.3622 52.5909C69.8475 52.413 70.4783 52.1381 70.996 51.8307C71.5945 51.4748 71.2224 50.5851 70.5592 50.6984C69.8151 50.7954 69.3298 50.7792 69.0711 50.8116C68.5534 50.8925 68.2299 50.9571 67.3565 51.6204C66.8711 51.9924 66.3536 52.2674 65.8359 52.4615L65.8682 42.19L81.0572 51.1998Z" fill="#B4EB38" stroke="#70745A" stroke-width="0.5" stroke-linecap="round" stroke-linejoin="round"/>
<path d="M64.4131 53.0117L65.8365 52.4615C66.3542 52.2674 66.8718 51.9926 67.3571 51.6206C68.2305 50.9573 68.554 50.8925 69.0717 50.8118C69.3305 50.7794 69.8157 50.7956 70.5598 50.6984C71.223 50.5853 71.5951 51.4748 70.9966 51.8307C70.479 52.1381 69.8481 52.4132 69.3628 52.5911C69.0717 52.7042 69.2496 53.8205 69.5408 53.9174C70.3819 54.1763 71.2392 53.8688 71.9995 53.4968C72.5171 53.2381 72.9862 52.688 73.5847 52.6395C74.8787 52.6073 75.2831 56.1011 73.6494 56.9908C71.9833 58.285 69.654 58.5598 67.5673 58.1878C67.5188 58.1716 67.4541 58.1716 67.4056 58.1555C67.0174 58.0909 66.6453 57.9937 66.2409 57.8966C66.1277 57.8644 66.0307 57.832 65.9336 57.832" stroke="#70745A" stroke-width="0.5" stroke-miterlimit="10" stroke-linecap="round" stroke-linejoin="round"/>
<path d="M65.9258 57.8243C65.9445 57.8289 65.9445 57.8289 65.9632 57.8336C65.9703 57.845 65.9819 57.8381 65.989 57.8498C66.1154 57.9003 66.2393 57.9207 66.3561 57.9292" stroke="#70745A" stroke-width="0.5" stroke-miterlimit="10" stroke-linecap="round" stroke-linejoin="round"/>
<path d="M65.9626 57.8334C65.9442 57.8288 65.9442 57.8288 65.9258 57.8243" stroke="#70745A" stroke-width="0.5" stroke-miterlimit="10" stroke-linecap="round" stroke-linejoin="round"/>
<path d="M64.4135 53.0061L49.6857 46.2161C50.1 44.8007 50.5342 42.8152 50.78 40.1794C51.3286 34.2675 51.5114 30.0604 46.5251 29.2516C44.7041 28.9566 43.5314 30.0683 42.8943 30.9338C42.5446 31.4333 42.3355 32.0068 42.2387 32.6076C41.1681 39.8887 37.0573 51.553 45.3841 55.6534C48.7102 57.2964 62.3492 57.7358 65.9252 57.8242C64.5013 57.1602 63.2738 53.7789 64.6805 53.1305L64.4135 53.0061Z" fill="#D6DACE" stroke="#70745A" stroke-width="0.5" stroke-linecap="round" stroke-linejoin="round"/>
<path d="M95.8788 53.3473C95.9723 53.4954 96.0038 53.6674 95.9836 53.8455C95.9531 54.0412 95.8915 54.2077 95.7782 54.3682C95.6649 54.5287 95.5204 54.6597 95.3345 54.7671C95.1176 54.8923 94.9419 54.9341 94.8176 54.8871C94.6933 54.8281 94.5895 54.6978 94.4958 54.4904L94.0815 53.636L90.7968 55.5324L90.3958 56.8576C90.2933 57.1903 90.1905 57.4397 90.0773 57.6239C89.9743 57.8022 89.8093 57.957 89.6027 58.0763C89.4168 58.1837 89.2618 58.2256 89.1478 58.1843C89.034 58.1551 88.9613 58.0662 88.9299 57.9179C88.8984 57.7696 88.9186 57.5678 89.0109 57.3125L91.5333 49.4254C91.6461 49.0986 91.7695 48.8374 91.9138 48.6352C92.058 48.433 92.2334 48.2723 92.4194 48.165C92.6156 48.0517 92.781 48.0156 92.9259 48.0509C93.0708 48.0861 93.1953 48.2043 93.2993 48.4059L95.8788 53.3473ZM91.3068 53.8473L93.5487 52.553L92.425 50.1586L92.4043 50.1706L91.3068 53.8473Z" fill="#70745A"/>
<path d="M88.4435 50.5676C88.6397 50.4542 88.7948 50.424 88.8984 50.4833C89.002 50.5421 89.0541 50.6785 89.0548 50.904C89.0554 51.1295 89.0043 51.3373 88.9013 51.5156C88.7984 51.6939 88.6436 51.8428 88.4474 51.9559L85.7829 53.4943L85.7884 55.4525L88.2361 54.0393C88.4323 53.9259 88.5874 53.8959 88.691 53.955C88.7946 54.014 88.8468 54.1623 88.8474 54.3757C88.848 54.6012 88.7968 54.7973 88.6939 54.9875C88.591 55.1658 88.4363 55.3145 88.24 55.4278L85.7924 56.841L85.7994 59.3331C85.8012 59.962 85.5439 60.4198 85.0379 60.7118C84.79 60.855 84.5936 60.8852 84.4589 60.8084C84.3241 60.7197 84.2512 60.5361 84.2503 60.2274L84.2324 53.9259C84.2316 53.6292 84.3033 53.362 84.4474 53.1124C84.5812 52.8806 84.7772 52.6843 85.0354 52.5352L88.4435 50.5676Z" fill="#70745A"/>
<path d="M97.644 45.1479C97.8919 45.0048 98.078 44.9807 98.2127 45.0691C98.3475 45.1459 98.4101 45.3357 98.4109 45.6323L98.4291 52.0645C98.4299 52.3492 98.3686 52.6105 98.2348 52.8541C98.1113 53.08 97.9153 53.2763 97.6675 53.4194C97.4093 53.5685 97.2232 53.5928 97.0885 53.516C96.9537 53.4273 96.8911 53.2376 96.8903 52.9529L96.8721 46.5206C96.8712 46.2241 96.9325 45.9628 97.0664 45.731C97.2002 45.4873 97.3858 45.297 97.644 45.1479Z" fill="#70745A"/>
<path d="M100.599 43.5256C100.847 43.3827 101.033 43.3584 101.168 43.435C101.303 43.5 101.365 43.6897 101.366 43.9865L101.382 49.6707L104.047 48.1323C104.263 48.0071 104.429 47.9831 104.543 48.036C104.657 48.1009 104.719 48.2552 104.72 48.4925C104.721 48.7298 104.659 48.9555 104.546 49.1516C104.433 49.3477 104.268 49.5025 104.051 49.6277L100.632 51.6015C100.385 51.7444 100.188 51.7865 100.053 51.6978C99.9084 51.6272 99.8458 51.4374 99.845 51.1527L99.8272 44.8749C99.8263 44.5781 99.8876 44.3168 100.021 44.0969C100.155 43.8651 100.351 43.6688 100.599 43.5256Z" fill="#70745A"/>
<path d="M139.872 135.087V141.768C139.549 145.197 137.495 148.578 133.677 151.215C125.314 156.973 111.711 156.973 103.283 151.198C99.4494 148.578 97.3628 145.197 97.0068 141.768V135.007C97.3628 138.404 99.4171 141.736 103.186 144.34C111.565 150.115 125.169 150.115 133.596 144.34C137.365 141.768 139.468 138.468 139.872 135.087Z" fill="#D6DACE" stroke="#70745A" stroke-width="0.5" stroke-linecap="round" stroke-linejoin="round"/>
<path d="M139.872 135.087C139.468 138.468 137.365 141.768 133.596 144.34C125.169 150.115 111.565 150.115 103.186 144.34C99.4171 141.736 97.3628 138.403 97.0069 135.007C96.5702 130.866 98.6568 126.611 103.283 123.441C111.711 117.666 125.33 117.666 133.693 123.441C138.32 126.627 140.374 130.914 139.872 135.087Z" stroke="#70745A" stroke-width="0.5" stroke-linecap="round" stroke-linejoin="round"/>
<path d="M129.356 126.951C123.372 123.134 113.634 123.134 107.6 126.951C101.567 130.785 101.534 136.996 107.519 140.814C113.52 144.647 123.258 144.647 129.276 140.814C135.309 136.996 135.341 130.785 129.356 126.951ZM123.598 137.449C120.735 139.407 116.092 139.407 113.246 137.449C110.399 135.476 110.415 132.289 113.278 130.332C116.157 128.375 120.783 128.375 123.63 130.332C126.477 132.289 126.461 135.476 123.598 137.449Z" fill="#101700" stroke="#70745A" stroke-width="0.5" stroke-linecap="round" stroke-linejoin="round"/>
<path d="M118.443 133.887V91.4556" stroke="#70745A" stroke-width="0.5" stroke-miterlimit="10" stroke-linecap="round" stroke-linejoin="round"/>
<path d="M134.259 117.677C128.313 110.493 124.006 113.225 118.443 107.884V92.9978C125.788 101.169 128.925 97.5782 134.259 102.79V117.677Z" fill="#B4EB38" stroke="#70745A" stroke-width="0.5" stroke-linecap="round" stroke-linejoin="round"/>
</svg>
