<svg width="131" height="159" viewBox="0 0 131 159" fill="none" xmlns="http://www.w3.org/2000/svg">
<path d="M72.5336 153.794C59.7451 159.114 38.9679 159.114 26.1142 153.81C13.3258 148.522 13.1956 139.964 25.7888 134.643C25.4472 137.54 25.9679 140.208 27.4647 142.437C32.4271 149.807 46.2083 149.238 58.2319 141.152C61.8603 138.711 64.9353 135.848 67.2782 132.854C69.0681 133.342 70.7765 133.911 72.3709 134.578C85.2245 139.883 85.3059 148.49 72.5336 153.794Z" fill="#D6DACE" stroke="#D6DACE" stroke-width="0.5" stroke-miterlimit="10" stroke-linecap="round" stroke-linejoin="round"/>
<path d="M67.2785 132.854C64.9356 135.847 61.8607 138.711 58.2322 141.151C46.2086 149.238 32.4274 149.807 27.465 142.437C25.9682 140.208 25.4475 137.54 25.7891 134.643C25.8054 134.383 25.838 134.123 25.8868 133.862C26.0495 134.041 26.2122 134.237 26.3911 134.399C31.7604 139.801 42.9382 139.215 52.5865 132.74C53.4976 132.138 54.3599 131.487 55.1735 130.82C63.3249 124.149 66.9532 114.826 63.6992 108.432C66.8393 109.148 69.41 110.71 71.037 113.118C74.5027 118.275 72.7617 125.939 67.2785 132.854Z" fill="#101700" stroke="#70745A" stroke-width="0.5" stroke-miterlimit="10" stroke-linecap="round" stroke-linejoin="round"/>
<path d="M52.5866 132.74C42.6291 139.427 31.0447 139.834 25.8869 133.862C25.6102 133.553 25.35 133.212 25.1222 132.87C23.3812 130.283 22.9256 127.11 23.6091 123.742C23.9833 121.887 24.7154 120.146 25.0572 118.259C26.2936 111.328 24.6666 103.73 20.8105 97.8724L32.2649 90.1602C32.1185 90.2577 35.649 94.1465 36.0071 94.488C39.3262 97.7422 43.6054 100.166 48.0634 101.419C50.4226 102.086 52.8144 102.038 55.1898 102.493C58.5415 103.144 61.3238 104.755 63.0647 107.342C63.3088 107.7 63.5202 108.058 63.6993 108.432C67.2786 115.461 62.5277 126.053 52.5866 132.74Z" stroke="#70745A" stroke-width="0.5" stroke-miterlimit="10" stroke-linecap="round" stroke-linejoin="round"/>
<path d="M35.8271 82.7868C38.4732 86.7202 35.429 93.4062 29.0245 97.7146C22.6108 102.029 15.2707 102.329 12.6246 98.3957C11.7591 97.1093 11.4987 95.5234 11.7761 93.8177C14.5183 97.0143 20.6988 96.809 26.0112 93.2351C31.3143 89.6675 33.8399 84.0295 31.9215 80.2788C33.5969 80.6708 34.9617 81.5003 35.8271 82.7868Z" fill="#D6DACE" stroke="#70745A" stroke-width="0.5" stroke-miterlimit="10" stroke-linecap="round" stroke-linejoin="round"/>
<path d="M31.9198 80.2788C33.8382 84.0295 31.3126 89.6675 26.0095 93.2351C20.697 96.809 14.5166 97.0143 11.7744 93.8177C12.3354 90.3347 15.1279 86.3725 19.4409 83.4711C23.7536 80.5697 28.4826 79.4856 31.9198 80.2788Z" stroke="#70745A" stroke-width="0.5" stroke-miterlimit="10" stroke-linecap="round" stroke-linejoin="round"/>
<path d="M21.326 89.5769C27.5509 86.8004 30.3465 79.5033 27.5699 73.2784C24.7933 67.0534 17.4962 64.258 11.2713 67.0346C5.04634 69.8112 2.25082 77.1083 5.02738 83.3332C7.80393 89.5581 15.1011 92.3535 21.326 89.5769Z" fill="#B4EB38" stroke="#70745A" stroke-width="0.5" stroke-miterlimit="10" stroke-linecap="round" stroke-linejoin="round"/>
<path d="M117.586 106.382C115.471 114.321 103.252 117.982 90.3006 114.533C77.3494 111.1 68.5634 101.859 70.6785 93.9186C71.5571 90.5504 74.258 87.9635 78.049 86.3528C77.9351 86.6294 77.8374 86.9385 77.7398 87.2638C75.9014 94.1788 82.686 101.989 92.9201 104.706C103.154 107.423 112.916 104.006 114.755 97.0912C114.836 96.7821 114.901 96.4566 114.934 96.1637C117.423 99.4341 118.481 103.03 117.586 106.382Z" fill="#D6DACE" stroke="#70745A" stroke-width="0.5" stroke-miterlimit="10" stroke-linecap="round" stroke-linejoin="round"/>
<path d="M114.753 92.3772C115.058 93.6042 115.13 94.8467 114.945 96.0797C114.91 96.407 114.844 96.7521 114.754 97.0907C112.916 104.009 103.151 107.424 92.9187 104.705C82.6861 101.987 75.9039 94.1767 77.7419 87.2581C77.8319 86.9194 77.9461 86.5872 78.0781 86.2856C78.5291 85.1235 79.2076 84.0801 80.0816 83.1662C84.1719 78.8898 88.306 74.6217 91.3436 69.5432C96.1981 61.4276 99.9874 52.1986 102.952 42.0815C104.599 43.1925 106.607 44.1146 108.857 44.7121C111.082 45.3034 113.307 45.5062 115.289 45.3591C112.841 55.6136 111.55 65.5064 111.737 74.9616" stroke="#70745A" stroke-width="0.5" stroke-miterlimit="10" stroke-linecap="round" stroke-linejoin="round"/>
<path d="M120.376 51.7434C119.618 54.5979 116.392 56.4082 112.265 56.7361C110.283 56.8831 108.058 56.6804 105.832 56.0893C103.583 55.4915 101.575 54.5695 99.9275 53.4585C96.4831 51.1192 94.6048 47.9528 95.3632 45.0983C95.8388 43.308 97.2674 41.9266 99.308 41.0703C99.3322 41.0767 99.7109 40.9182 99.7109 40.9182C102.446 39.8838 106.109 39.7434 109.907 40.7522C113.705 41.7612 116.809 43.7253 118.676 45.9566C118.676 45.9566 118.927 46.2821 118.951 46.2885C120.297 48.0447 120.852 49.9531 120.376 51.7434Z" fill="#D6DACE" stroke="#70745A" stroke-width="0.5" stroke-miterlimit="10" stroke-linecap="round" stroke-linejoin="round"/>
<path d="M107.134 55.9211L111.021 41.0135C110.122 40.6253 109.17 40.2875 108.164 40.0205C107.887 39.9466 107.612 39.8919 107.335 39.8302L103.348 55.128C103.596 55.2038 103.835 55.2899 104.09 55.3574C105.114 55.6294 106.135 55.8097 107.134 55.9211Z" fill="#70745A"/>
<path d="M120.378 51.7436C120.854 49.9531 120.299 48.0447 118.953 46.2887C118.929 46.2823 118.679 45.9568 118.679 45.9568C118.017 45.166 117.193 44.412 116.244 43.7189L112.871 56.6592C116.701 56.2075 119.658 54.4545 120.378 51.7436Z" fill="#70745A"/>
<path d="M126.096 36.1914L118.676 45.9536L115.829 49.7122C115.373 50.2979 114.755 50.7372 114.039 50.9486C113.356 51.1439 112.477 51.3392 111.713 51.3229C111.29 51.3716 110.85 51.3554 110.411 51.3554C110.069 51.3392 109.744 51.3067 109.402 51.2578C109.337 51.2741 109.288 51.2578 109.24 51.2416C108.589 51.1765 107.905 51.0463 107.222 50.8672C104.57 50.1677 102.536 48.6221 101.414 47.6133C100.812 47.06 100.421 46.3116 100.307 45.4819L99.7051 40.9261L98.127 28.7885C99.7051 32.677 104.44 36.3378 110.639 37.9812C116.854 39.6408 122.809 38.7947 126.096 36.1914Z" fill="#B4EB38" stroke="#70745A" stroke-width="0.5" stroke-miterlimit="10" stroke-linecap="round" stroke-linejoin="round"/>
<path d="M123.004 22.4591C127.153 25.2902 129.447 29.1625 128.519 32.6444C128.145 34.0437 127.299 35.2313 126.095 36.1913C122.808 38.7946 116.854 39.6407 110.638 37.9811C104.439 36.3377 99.7045 32.6769 98.1263 28.7883C98.1263 28.7721 98.1263 28.7721 98.1263 28.7721C97.5568 27.3402 97.4104 25.8759 97.7846 24.4767C98.7121 20.9948 102.568 18.7821 107.579 18.3752" stroke="#70745A" stroke-width="0.5" stroke-miterlimit="10" stroke-linecap="round" stroke-linejoin="round"/>
<path d="M120.58 20.1487C121.539 20.816 122.337 21.5806 122.971 22.4103C122.971 22.4103 123.167 22.7033 123.183 22.7033C124.24 24.2163 124.663 25.8922 124.24 27.4867C123.232 31.2453 117.895 33.0838 112.33 31.6032C106.75 30.1225 103.056 25.876 104.049 22.1174C104.472 20.5393 105.66 19.2865 107.335 18.4893C107.368 18.4893 107.677 18.3428 107.677 18.3428C109.874 17.3991 112.786 17.1876 115.812 17.9686" stroke="#70745A" stroke-width="0.5" stroke-miterlimit="10" stroke-linecap="round" stroke-linejoin="round"/>
<path d="M60.3066 85.0103L67.3877 73.1696" stroke="#70745A" stroke-width="0.5" stroke-miterlimit="10" stroke-linecap="round" stroke-linejoin="round"/>
<path d="M52.4422 80.7544L49.4775 65.2142" stroke="#70745A" stroke-width="0.5" stroke-miterlimit="10" stroke-linecap="round" stroke-linejoin="round"/>
<path d="M111.908 15.7232L116.951 14.8446V14.8608L112.64 26.6567L110.15 23.6467L112.689 16.6669L111.908 15.7232Z" fill="#B4EB38" stroke="#B4EB38" stroke-width="0.5" stroke-miterlimit="10" stroke-linecap="round" stroke-linejoin="round"/>
<path d="M126.729 3.25997L120.791 4.30122L119.001 9.19857L113.957 10.0772L111.891 15.7067L109.401 12.6967L111.451 7.0672L116.511 6.18861L118.301 1.27502L124.24 0.25L126.729 3.25997Z" fill="#B4EB38" stroke="#B4EB38" stroke-width="0.5" stroke-miterlimit="10" stroke-linecap="round" stroke-linejoin="round"/>
<path d="M130 7.29501L124.956 8.1736L126.746 3.27625L126.941 3.52023L127.511 4.28504L130 7.29501Z" fill="#B4EB38" stroke="#B4EB38" stroke-width="0.5" stroke-miterlimit="10" stroke-linecap="round" stroke-linejoin="round"/>
<path d="M130 7.29512L127.95 12.9409L122.889 13.8197L118.594 25.6318L112.639 26.6568L116.951 14.8609V14.8447L111.907 15.7233L111.891 15.7068L113.957 10.0773L119.001 9.19874L120.791 4.30138L126.729 3.26013L126.746 3.27636L124.956 8.17371L130 7.29512Z" stroke="#70745A" stroke-width="0.5" stroke-miterlimit="10" stroke-linecap="round" stroke-linejoin="round"/>
</svg>
