<svg width="248" height="248" viewBox="0 0 248 248" fill="none" xmlns="http://www.w3.org/2000/svg">
<rect width="248" height="248" fill="#101700"/>
<path d="M111.877 76.657C115.217 76.657 118.351 75.1459 120.44 72.4689C122.79 69.4654 123.397 65.5384 122.072 61.9659L111.318 32.9849L100.825 36.8745L111.411 65.4078L65.7352 60.3149L64.4946 71.4429L110.637 76.5917C111.047 76.6384 111.467 76.657 111.868 76.657H111.877Z" fill="#B4EB38"/>
<path d="M162.72 91.3763C162.72 91.3763 162.795 91.3763 162.832 91.3763C166.647 91.339 170.098 89.3708 172.057 86.1061L188.007 59.6342L178.418 53.8604L162.711 79.9312L138.217 41.0442L128.75 47.0046L153.496 86.2927C155.51 89.4828 158.952 91.3856 162.72 91.3856V91.3763Z" fill="#B4EB38"/>
<path d="M183.362 129.079L198.5 85.6771L187.932 81.9927L172.644 125.842C171.385 129.443 172.075 133.36 174.482 136.317C176.581 138.891 179.649 140.337 182.905 140.337C183.39 140.337 183.865 140.309 184.36 140.244L215 136.205L213.535 125.105L183.362 129.079Z" fill="#B4EB38"/>
<path d="M197.455 150.085L153.645 165.466C150.044 166.725 147.414 169.71 146.603 173.432C145.791 177.154 146.948 180.959 149.69 183.599L171.954 205.043L179.724 196.984L157.805 175.866L201.167 160.644L197.455 150.085Z" fill="#B4EB38"/>
<path d="M100.209 174.784C96.7855 176.473 94.5376 179.747 94.1832 183.543L91.301 214.315L102.447 215.36L105.292 185.054L144.234 209.464L150.175 199.978L110.832 175.316C107.605 173.292 103.632 173.087 100.218 174.775L100.209 174.784Z" fill="#B4EB38"/>
<path d="M70.2213 139.358C66.7702 137.735 62.806 138.014 59.6161 140.104L33.7607 157.034L39.8888 166.399L65.3524 149.73L70.5477 195.398L81.6659 194.13L76.4146 147.995C75.9856 144.208 73.663 140.981 70.2119 139.358H70.2213Z" fill="#B4EB38"/>
<path d="M43.5452 136.914L76.34 104.043C79.0356 101.347 80.1082 97.5231 79.2314 93.8107C78.3453 90.1076 75.6591 87.1787 72.0401 85.9847L42.6777 76.3213L39.1799 86.9548L68.0853 96.469L35.6262 129.004L43.5452 136.914Z" fill="#B4EB38"/>
</svg>
